<svg width="80" height="80" viewBox="0 0 80 80" fill="none" xmlns="http://www.w3.org/2000/svg">
<path d="M69.9527 55.776C71.2167 52.848 71.9847 49.648 72.1447 46.288H69.0567C68.1767 46.288 67.5367 45.392 67.8727 44.544C68.6407 42.592 67.2007 40.4 65.0407 40.4C63.1207 40.4 61.7127 42.144 62.0487 44C62.1287 44.448 62.2887 44.624 62.2887 45.008C62.2887 45.712 61.7127 46.288 61.0087 46.288H35.7607V52.304C38.9927 52.08 41.7447 54.656 41.7447 57.888C41.7447 61.12 39.0087 63.696 35.7607 63.472V70.432C42.7047 72.976 50.4647 72.56 57.0727 69.28C57.4727 69.088 57.9687 69.104 58.3687 69.376L65.3127 74.176L63.2167 66.016C63.1047 65.584 63.2327 65.104 63.5847 64.768C66.2887 62.256 68.4647 59.2 69.9527 55.776ZM12.1447 48.672C14.8007 52.592 18.4487 55.792 22.7207 57.888V50.4C22.7207 49.504 23.6487 48.864 24.4967 49.216C26.4647 50.032 28.7047 48.608 28.7047 46.416C28.7047 44.496 26.9447 43.072 25.0727 43.44C24.5767 43.536 24.4167 43.712 24.0167 43.712C23.3127 43.712 22.7367 43.136 22.7367 42.432V34.816H7.56873C7.80873 39.936 9.45673 44.672 12.1447 48.672ZM22.7207 32.256V9.20004C13.9047 13.52 8.01673 22.304 7.55273 32.256H22.7207ZM44.0327 8.14404C43.8407 8.08004 43.6647 8.00004 43.4727 7.95204V32.272H48.9607C48.7847 29.088 51.3447 26.384 54.5447 26.384C57.7607 26.384 60.3047 29.088 60.1287 32.272H61.6487C61.1527 21.36 54.1287 11.888 44.0327 8.14404ZM40.9127 7.20004C35.7447 5.96804 30.2567 6.28804 25.2807 8.11204V32.256H40.9127V7.20004ZM69.1687 15.28C69.8087 14.992 70.5767 15.264 70.8647 15.904C71.1527 16.544 70.8807 17.296 70.2407 17.584L66.9287 19.104C66.2887 19.392 65.5367 19.12 65.2327 18.48C64.9447 17.84 65.2167 17.088 65.8567 16.784L69.1687 15.28ZM59.9847 6.64004C60.2247 5.98404 60.9607 5.64804 61.6167 5.88804C62.2727 6.14404 62.6087 6.86404 62.3687 7.53604L61.0887 10.96C60.8487 11.616 60.1127 11.952 59.4407 11.712C58.7847 11.472 58.4487 10.736 58.6887 10.064L59.9847 6.64004ZM71.6007 27.792C72.2567 28.032 72.5927 28.768 72.3527 29.44C72.0967 30.096 71.3767 30.432 70.7047 30.192L67.2967 28.912C66.6407 28.672 66.3047 27.936 66.5447 27.28C66.7847 26.624 67.5207 26.288 68.1927 26.528L71.6007 27.792Z" fill="#FAFAFA"/>
</svg>
