<svg width="64" height="64" viewBox="0 0 64 64" fill="none" xmlns="http://www.w3.org/2000/svg">
<path d="M47.1313 36.8312C47.1313 49.5881 36.79 59.9281 24.0344 59.9281C11.2775 59.9281 0.9375 49.5881 0.9375 36.8312C0.9375 24.0755 11.2775 13.7344 24.0344 13.7344H24.0672C33.5404 13.7478 41.6775 19.4643 45.2275 27.6353C46.4516 30.4534 47.1313 33.5634 47.1313 36.8312Z" fill="#FFAF92"/>
<path d="M41 34C41 45.0464 32.0453 54 21 54C9.95359 54 1 45.0464 1 34C1 22.9546 9.95359 14 21 14H21.0285C29.2314 14.0116 36.2775 18.9616 39.3515 26.037C40.4115 28.4773 41 31.1703 41 34Z" fill="#FFCAB6"/>
<path d="M45.2281 27.6354C43.1333 28.884 42.1717 30.7671 42.1717 33.4831V39.6251C42.1717 40.4956 41.8325 41.315 41.2186 41.9326C40.5973 42.5539 39.7767 42.8942 38.9038 42.8942C35.3307 42.8942 32.4251 39.9874 32.4251 36.4155V30.4C32.4251 29.983 32.0858 29.645 31.6701 29.645H24.564C22.321 29.645 20.4961 27.8201 20.4961 25.5771V24.0197C20.4961 22.6532 21.1745 21.4411 22.2127 20.7031C22.1263 20.3834 22.0815 20.0479 22.0815 19.7037V17.9652C22.0815 16.493 22.9008 15.2079 24.107 14.5429C24.0815 14.3666 24.0681 14.1866 24.0681 14.0042V13.7344C33.5411 13.7479 41.6781 19.4644 45.2281 27.6354Z" fill="#FFAF92"/>
<path d="M63.0629 6.21094H55.9629V23.7859H63.0629V6.21094Z" fill="#FFBF00"/>
<path d="M60.4704 6.21094H55.9629V23.7859H60.4704V6.21094Z" fill="#F79800"/>
<path d="M22.3184 25.5741V24.0176C22.3184 22.7787 23.3226 21.7745 24.5615 21.7745H25.8361C24.7575 21.6973 23.904 20.7996 23.904 19.7007V17.9621C23.904 16.8126 24.8359 15.8807 25.9852 15.8807H27.7694C26.7312 15.8807 25.8904 15.0398 25.8904 14.0017V12.5033C25.8904 11.4656 26.7316 10.6243 27.7694 10.6243H29.4979C28.4597 10.6243 27.6189 9.78222 27.6189 8.74409V7.62509C27.6189 6.58822 28.4597 5.74609 29.4979 5.74609H54.7429V23.9152C51.8282 23.9152 49.4852 24.2086 47.6075 24.7168C41.5975 26.3392 40.347 30.144 40.347 33.4808C40.347 35.2056 40.347 39.6223 40.347 39.6223C40.347 40.0206 40.1851 40.3823 39.9246 40.6441C39.6629 40.9058 39.3025 41.0677 38.903 41.0677C36.3311 41.0677 34.2472 38.9838 34.2472 36.4132V30.3968C34.2472 28.973 33.0929 27.8186 31.669 27.8186H24.5627C23.3232 27.8186 22.3184 26.8137 22.3184 25.5741Z" fill="#FFE4DB"/>
<path d="M48.1016 24.5918C49.8922 24.1611 52.0784 23.9152 54.7438 23.9152V5.74609H48.1016V24.5918Z" fill="#FFAF92"/>
<path d="M58.722 4.10547H49.707V25.8917H58.722V4.10547Z" fill="#FFD96E"/>
<path d="M16.2638 48.4397C16.4452 48.7066 16.74 48.8503 17.04 48.8503C17.2215 48.8503 17.4047 48.7977 17.5661 48.6881C21.5562 45.976 26.5136 45.976 30.5037 48.6881C30.932 48.9791 31.5151 48.868 31.8061 48.4398C32.0972 48.0116 31.986 47.4286 31.5578 47.1375C29.3015 45.6037 26.7001 44.793 24.035 44.793C21.3698 44.793 18.7685 45.6037 16.5121 47.1375C16.084 47.4285 15.9727 48.0115 16.2638 48.4397Z" fill="black"/>
<path d="M17.0391 34.2217C17.5568 34.2217 17.9766 33.802 17.9766 33.2842V32.5742C17.9766 32.0565 17.5568 31.6367 17.0391 31.6367C16.5213 31.6367 16.1016 32.0565 16.1016 32.5742V33.2842C16.1016 33.802 16.5213 34.2217 17.0391 34.2217Z" fill="black"/>
<path d="M31.9004 33.2842V32.5742C31.9004 32.0565 31.4806 31.6367 30.9629 31.6367C30.4451 31.6367 30.0254 32.0565 30.0254 32.5742V33.2842C30.0254 33.802 30.4451 34.2217 30.9629 34.2217C31.4806 34.2217 31.9004 33.802 31.9004 33.2842Z" fill="black"/>
<path d="M63.0625 11.7693C63.5803 11.7693 64 11.3496 64 10.8318V6.21059C64 5.69284 63.5803 5.27309 63.0625 5.27309H59.6587V4.10547C59.6587 3.58772 59.239 3.16797 58.7212 3.16797H49.7062C49.1885 3.16797 48.7687 3.58772 48.7687 4.10547V4.80809H45.5213C45.0035 4.80809 44.5838 5.22784 44.5838 5.74559C44.5838 6.26334 45.0035 6.68309 45.5213 6.68309H48.7687V23.4897C42.5597 24.6976 39.4113 28.055 39.4113 33.4807V39.622C39.4113 39.7581 39.3589 39.8852 39.262 39.9816C39.2063 40.0372 39.0855 40.1307 38.9025 40.1307C36.8534 40.1307 35.1862 38.4631 35.1862 36.4132V30.3957C35.1862 28.4576 33.6089 26.8807 31.67 26.8807H24.5625C23.8422 26.8807 23.2563 26.2947 23.2563 25.5745V24.0182C23.2563 23.2972 23.8422 22.7107 24.5625 22.7107H25.8271C25.8304 22.7107 25.8335 22.7112 25.8368 22.7112H27.7396C28.2574 22.7112 28.6771 22.2915 28.6771 21.7737C28.6771 21.256 28.2574 20.8362 27.7396 20.8362H25.887C25.3001 20.7867 24.8425 20.2913 24.8425 19.7007V17.9618C24.8425 17.3312 25.355 16.8181 25.985 16.8181H27.6201C27.6242 16.8181 27.6281 16.8187 27.6322 16.8187H29.5351C30.0529 16.8187 30.4726 16.399 30.4726 15.8812C30.4726 15.3635 30.0529 14.9437 29.5351 14.9437H27.7821C27.778 14.9437 27.7741 14.9431 27.77 14.9431C27.2503 14.9431 26.8275 14.5208 26.8275 14.0018V12.5031C26.8275 11.9841 27.2503 11.5618 27.77 11.5618H29.185C29.1944 11.5621 29.2034 11.5632 29.2129 11.5632H31.1159C31.6336 11.5632 32.0534 11.1435 32.0534 10.6257C32.0534 10.108 31.6336 9.68822 31.1159 9.68822H29.5266C29.5172 9.68797 29.5083 9.68684 29.4988 9.68684C28.9798 9.68684 28.5575 9.26409 28.5575 8.74434V7.62559C28.5575 7.10584 28.9798 6.68309 29.4988 6.68309H41.7287C42.2465 6.68309 42.6662 6.26334 42.6662 5.74559C42.6662 5.22784 42.2465 4.80809 41.7287 4.80809H29.4988C27.9459 4.80809 26.6825 6.07197 26.6825 7.62559V8.74434C26.6825 9.12697 26.7591 9.49197 26.8979 9.82497C25.7699 10.1928 24.9525 11.2545 24.9525 12.5031V12.8122C24.6456 12.8006 24.3388 12.7943 24.0338 12.7943C10.7815 12.7945 0 23.5765 0 36.8293C0 42.7846 2.19463 48.498 6.17963 52.9172C10.1349 57.3033 15.5318 60.0732 21.3761 60.7163C21.411 60.7202 21.4455 60.722 21.4799 60.722C21.9516 60.722 22.3578 60.3667 22.4106 59.887C22.4673 59.3723 22.0959 58.9092 21.5812 58.8526C10.3469 57.6163 1.875 48.1485 1.875 36.8293C1.875 24.6103 11.8154 14.6693 24.0338 14.6693C24.3683 14.6693 24.7051 14.6778 25.0416 14.6928C25.0734 14.8177 25.1104 14.9405 25.1583 15.0582C23.8951 15.4187 22.9676 16.584 22.9676 17.9618V19.7006C22.9676 20.2002 23.0915 20.6745 23.3107 21.0923C22.1772 21.5796 21.3814 22.7076 21.3814 24.0181V25.5743C21.3814 27.3285 22.8085 28.7556 24.5626 28.7556H31.6701C32.5751 28.7556 33.3114 29.4913 33.3114 30.3956V36.4131C33.3114 39.4967 35.8196 42.0056 38.9026 42.0056C39.5393 42.0056 40.1378 41.7576 40.5864 41.3088C41.0378 40.8596 41.2864 40.2605 41.2864 39.6218V33.4806C41.2864 31.5425 41.6653 29.1276 44.0631 27.3441C45.4581 30.2882 46.1939 33.5455 46.1939 36.8293C46.1939 48.617 36.9819 58.3366 25.222 58.957C24.705 58.9842 24.3079 59.4256 24.3351 59.9426C24.3615 60.4428 24.7754 60.8307 25.2705 60.8307C25.2871 60.8307 25.3039 60.8303 25.3206 60.8295C38.0765 60.1566 48.0687 49.6145 48.0687 36.8295C48.0687 33.213 47.2459 29.6248 45.6861 26.3915C46.5408 25.9957 47.5582 25.659 48.7687 25.4015V25.8915C48.7687 26.4092 49.1885 26.829 49.7062 26.829H58.7212C59.239 26.829 59.6587 26.4092 59.6587 25.8915V24.7233H63.0625C63.5803 24.7233 64 24.3036 64 23.7858V14.6233C64 14.1056 63.5803 13.6858 63.0625 13.6858C62.5447 13.6858 62.125 14.1056 62.125 14.6233V22.8483H59.6587V7.14834H62.125V10.8321C62.125 11.3496 62.5447 11.7693 63.0625 11.7693ZM57.7837 24.9538H50.6437V5.04297H57.7837V24.9538Z" fill="black"/>
<path d="M54.2148 7.66819C54.7326 7.66819 55.1523 7.24844 55.1523 6.73069V6.52344C55.1523 6.00569 54.7326 5.58594 54.2148 5.58594C53.6971 5.58594 53.2773 6.00569 53.2773 6.52344V6.73069C53.2773 7.24844 53.6971 7.66819 54.2148 7.66819Z" fill="black"/>
<path d="M54.2148 10.0119C54.7326 10.0119 55.1523 9.59219 55.1523 9.07444V8.86719C55.1523 8.34944 54.7326 7.92969 54.2148 7.92969C53.6971 7.92969 53.2773 8.34944 53.2773 8.86719V9.07444C53.2773 9.59219 53.6971 10.0119 54.2148 10.0119Z" fill="black"/>
</svg>
