<svg width="80" height="80" viewBox="0 0 80 80" fill="none" xmlns="http://www.w3.org/2000/svg">
<path fill-rule="evenodd" clip-rule="evenodd" d="M60.0507 10.1351C59.9839 10.2513 59.8949 10.3532 59.7887 10.435C59.6825 10.5169 59.5612 10.577 59.4318 10.6119C59.3024 10.6469 59.1673 10.656 59.0344 10.6388C58.9014 10.6215 58.7732 10.5783 58.6569 10.5115C58.5407 10.4447 58.4388 10.3556 58.357 10.2494C58.2751 10.1432 58.215 10.022 58.1801 9.89255C58.1451 9.76312 58.136 9.62809 58.1532 9.49514C58.1705 9.36219 58.2137 9.23395 58.2805 9.11772L59.6326 6.77584C59.7675 6.5411 59.9901 6.36957 60.2515 6.29898C60.5129 6.22839 60.7916 6.26453 61.0263 6.39943C61.2611 6.53434 61.4326 6.75697 61.5032 7.01835C61.5738 7.27973 61.5376 7.55845 61.4027 7.79318L60.0507 10.1351Z" fill="#FAFAFA"/>
<path fill-rule="evenodd" clip-rule="evenodd" d="M68.9552 19.7927C68.7204 19.9276 68.4417 19.9637 68.1804 19.8931C67.919 19.8225 67.6964 19.6509 67.5615 19.4162C67.4266 19.1815 67.3905 18.9028 67.4611 18.6414C67.5317 18.38 67.7033 18.1574 67.938 18.0225L70.2797 16.6705C70.5144 16.5356 70.7932 16.4994 71.0546 16.5699C71.316 16.6405 71.5387 16.812 71.6736 17.0468C71.8086 17.2815 71.8447 17.5602 71.7742 17.8216C71.7036 18.083 71.5321 18.3057 71.2974 18.4407L68.9552 19.7927Z" fill="#FAFAFA"/>
<path fill-rule="evenodd" clip-rule="evenodd" d="M71.8448 32.6109C71.709 32.6126 71.5743 32.5873 71.4485 32.5365C71.3226 32.4857 71.208 32.4105 71.1115 32.3151C71.0149 32.2197 70.9382 32.1061 70.8859 31.9809C70.8336 31.8556 70.8066 31.7213 70.8066 31.5855C70.8066 31.4498 70.8336 31.3154 70.8859 31.1902C70.9382 31.0649 71.0149 30.9513 71.1115 30.8559C71.208 30.7606 71.3226 30.6853 71.4485 30.6345C71.5743 30.5837 71.709 30.5585 71.8448 30.5601H74.5479C74.8177 30.5635 75.0752 30.673 75.2648 30.8649C75.4544 31.0568 75.5607 31.3157 75.5607 31.5855C75.5607 31.8553 75.4544 32.1142 75.2648 32.3062C75.0752 32.4981 74.8177 32.6076 74.5479 32.6109H71.8448Z" fill="#FAFAFA"/>
<path fill-rule="evenodd" clip-rule="evenodd" d="M67.938 45.149C67.7033 45.0142 67.5317 44.7915 67.4611 44.5302C67.3905 44.2688 67.4266 43.9901 67.5615 43.7554C67.6964 43.5206 67.919 43.3491 68.1804 43.2785C68.4417 43.2079 68.7204 43.244 68.9552 43.3789L71.2971 44.7309C71.5318 44.8658 71.7033 45.0885 71.7739 45.3498C71.8445 45.6112 71.8084 45.8899 71.6735 46.1247C71.5386 46.3594 71.3159 46.5309 71.0545 46.6015C70.7932 46.6721 70.5144 46.636 70.2797 46.5011L67.938 45.149Z" fill="#FAFAFA"/>
<path fill-rule="evenodd" clip-rule="evenodd" d="M24.0201 43.3789C24.1363 43.3121 24.2646 43.2689 24.3975 43.2516C24.5305 43.2344 24.6655 43.2435 24.7949 43.2785C24.9243 43.3135 25.0456 43.3736 25.1518 43.4554C25.258 43.5372 25.347 43.6391 25.4138 43.7554C25.4806 43.8716 25.5238 43.9998 25.541 44.1328C25.5583 44.2657 25.5491 44.4008 25.5142 44.5302C25.4792 44.6596 25.4191 44.7809 25.3373 44.887C25.2555 44.9932 25.1535 45.0823 25.0373 45.149L22.6954 46.5011C22.4607 46.636 22.182 46.6721 21.9206 46.6015C21.6592 46.5309 21.4366 46.3593 21.3017 46.1246C21.1669 45.8899 21.1307 45.6111 21.2013 45.3498C21.2719 45.0884 21.4435 44.8658 21.6782 44.7309L24.0201 43.3789Z" fill="#FAFAFA"/>
<path fill-rule="evenodd" clip-rule="evenodd" d="M21.1309 30.5601C21.2667 30.5585 21.4014 30.5837 21.5272 30.6345C21.6531 30.6853 21.7677 30.7606 21.8642 30.8559C21.9608 30.9513 22.0375 31.0649 22.0898 31.1902C22.1421 31.3154 22.1691 31.4498 22.1691 31.5855C22.1691 31.7213 22.1421 31.8556 22.0898 31.9809C22.0375 32.1061 21.9608 32.2197 21.8642 32.3151C21.7677 32.4105 21.6531 32.4857 21.5272 32.5365C21.4014 32.5873 21.2667 32.6126 21.1309 32.6109H18.4269C18.1571 32.6076 17.8995 32.4981 17.71 32.3062C17.5204 32.1142 17.4141 31.8553 17.4141 31.5855C17.4141 31.3157 17.5204 31.0568 17.71 30.8649C17.8995 30.673 18.1571 30.5635 18.4269 30.5601H21.1309Z" fill="#FAFAFA"/>
<path fill-rule="evenodd" clip-rule="evenodd" d="M25.0373 18.0224C25.1535 18.0892 25.2555 18.1782 25.3373 18.2844C25.4191 18.3906 25.4792 18.5119 25.5142 18.6413C25.5491 18.7707 25.5583 18.9057 25.541 19.0387C25.5238 19.1716 25.4806 19.2999 25.4138 19.4161C25.347 19.5323 25.258 19.6343 25.1518 19.7161C25.0456 19.7979 24.9243 19.858 24.7949 19.893C24.6655 19.9279 24.5305 19.9371 24.3975 19.9198C24.2646 19.9026 24.1363 19.8594 24.0201 19.7926L21.6782 18.4405C21.4435 18.3057 21.2719 18.083 21.2013 17.8217C21.1307 17.5603 21.1669 17.2816 21.3017 17.0469C21.4366 16.8121 21.6592 16.6406 21.9206 16.57C22.182 16.4994 22.4607 16.5355 22.6954 16.6704L25.0373 18.0224Z" fill="#FAFAFA"/>
<path fill-rule="evenodd" clip-rule="evenodd" d="M34.6954 9.11772C34.7622 9.23395 34.8055 9.36219 34.8227 9.49514C34.84 9.62809 34.8309 9.76312 34.7959 9.89255C34.7609 10.022 34.7008 10.1432 34.619 10.2494C34.5372 10.3556 34.4353 10.4447 34.319 10.5115C34.2028 10.5783 34.0746 10.6215 33.9416 10.6388C33.8087 10.656 33.6736 10.6469 33.5442 10.6119C33.4148 10.577 33.2935 10.5169 33.1873 10.435C33.0811 10.3532 32.9921 10.2513 32.9253 10.1351L31.5733 7.79318C31.5065 7.67695 31.4632 7.5487 31.446 7.41576C31.4287 7.28281 31.4379 7.14777 31.4728 7.01835C31.5078 6.88893 31.5679 6.76766 31.6497 6.66147C31.7315 6.55527 31.8334 6.46623 31.9497 6.39943C32.1844 6.26453 32.4631 6.22839 32.7245 6.29898C32.8539 6.33394 32.9752 6.39404 33.0814 6.47586C33.1876 6.55768 33.2766 6.65961 33.3434 6.77584L34.6954 9.11772Z" fill="#FAFAFA"/>
<path fill-rule="evenodd" clip-rule="evenodd" d="M47.5138 6.22934C47.5154 6.36506 47.4901 6.49976 47.4394 6.62564C47.3886 6.75151 47.3133 6.86606 47.2179 6.96262C47.1226 7.05919 47.009 7.13586 46.8837 7.18819C46.7585 7.24052 46.6241 7.26746 46.4884 7.26746C46.3526 7.26746 46.2182 7.24052 46.093 7.18819C45.9678 7.13586 45.8542 7.05919 45.7588 6.96262C45.6634 6.86606 45.5881 6.75151 45.5374 6.62564C45.4866 6.49976 45.4613 6.36506 45.463 6.22934V3.52543C45.4613 3.38971 45.4866 3.25501 45.5374 3.12913C45.5881 3.00326 45.6634 2.88871 45.7588 2.79215C45.8542 2.69558 45.9678 2.61891 46.093 2.56658C46.2182 2.51425 46.3526 2.4873 46.4884 2.4873C46.6241 2.4873 46.7585 2.51425 46.8837 2.56658C47.009 2.61891 47.1226 2.69558 47.2179 2.79215C47.3133 2.88871 47.3886 3.00326 47.4394 3.12913C47.4901 3.25501 47.5154 3.38971 47.5138 3.52543V6.22934Z" fill="#FAFAFA"/>
<path fill-rule="evenodd" clip-rule="evenodd" d="M38.1305 18.7433C35.9616 18.9908 33.9407 19.9663 32.3977 21.5105C26.2624 27.6458 31.5505 35.073 37.6928 41.2149C39.646 43.168 41.6099 44.9303 43.3674 46.5077C44.1721 47.2294 45.3657 48.6384 46.4758 48.6359C47.6041 48.633 48.9778 47.0266 49.8021 46.2814C51.5377 44.7113 53.4313 42.9981 55.3236 41.1059C61.5067 34.9227 66.6853 27.6419 60.5539 21.5105C59.0094 19.9669 56.9875 18.992 54.8178 18.7449C52.639 18.4881 50.4373 18.973 48.5678 20.1211C47.9423 20.5175 47.217 20.7279 46.4765 20.7279C45.736 20.7279 45.0107 20.5175 44.3852 20.1211C42.5144 18.9719 40.311 18.4866 38.1305 18.7433Z" fill="#FAFAFA"/>
<path fill-rule="evenodd" clip-rule="evenodd" d="M32.375 59.8365C32.2444 59.8013 32.1221 59.7406 32.0152 59.6578C31.9082 59.575 31.8187 59.4719 31.7519 59.3543C31.6851 59.2368 31.6422 59.1071 31.6257 58.9729C31.6093 58.8387 31.6197 58.7025 31.6562 58.5723C31.6927 58.4421 31.7546 58.3204 31.8385 58.2143C31.9223 58.1081 32.0263 58.0197 32.1445 57.954C32.2628 57.8883 32.3928 57.8468 32.5272 57.8317C32.6616 57.8166 32.7977 57.8283 32.9275 57.8661L45.92 61.5475C46.7535 61.7847 47.6468 61.687 48.4092 61.275C48.7794 61.0762 49.1065 60.8062 49.3719 60.4804C49.6372 60.1547 49.8355 59.7797 49.9553 59.377C50.1969 58.5556 50.1038 57.6721 49.6964 56.9191C49.289 56.1661 48.6003 55.6048 47.7806 55.3576C44.0768 54.2553 40.4375 52.9464 36.88 51.4373C30.4344 48.7734 30.0233 48.6059 17.2109 55.3815L25.543 67.4051C25.9416 66.8067 26.327 66.3615 27.0733 66.0967C27.6337 65.899 28.2431 65.8886 28.8098 66.0672L44.2483 70.8493C48.4295 72.1445 58.0562 65.0239 64.6077 60.1775C66.4725 58.7981 68.0988 57.5953 69.2887 56.8148C70.6188 55.9423 71.1861 54.8084 70.1627 53.562C69.8175 53.1575 69.3993 52.8215 68.9298 52.5717C67.9525 52.0485 66.8515 51.8001 65.7442 51.8528C64.6369 51.9055 63.5645 52.2574 62.6413 52.8711L51.9386 59.8904C51.7481 60.5666 51.4231 61.1973 50.9832 61.745C50.5434 62.2927 49.9975 62.746 49.3784 63.0779C48.1502 63.7425 46.7108 63.9006 45.3675 63.5186L32.375 59.8365Z" fill="#FAFAFA"/>
<path fill-rule="evenodd" clip-rule="evenodd" d="M13.7076 53.9165C13.5991 53.7618 13.4338 53.6562 13.2477 53.623C13.0617 53.5897 12.8701 53.6314 12.7147 53.739L4.73263 59.2702C4.57778 59.3786 4.47216 59.5439 4.43889 59.7299C4.40563 59.916 4.44742 60.1076 4.55513 60.2629L16.2886 77.1952C16.397 77.35 16.5623 77.4555 16.7483 77.4888C16.9344 77.5221 17.126 77.4804 17.2814 77.3729L25.2636 71.8416C25.4184 71.7333 25.524 71.568 25.5572 71.382C25.5905 71.1959 25.5487 71.0043 25.4411 70.849L13.7076 53.9165ZM19.5883 71.6951C19.7394 71.9172 19.797 72.1899 19.7485 72.4542C19.6999 72.7184 19.5492 72.9529 19.3289 73.1068C19.1086 73.2606 18.8366 73.3215 18.5718 73.2761C18.307 73.2308 18.0707 73.0828 17.9142 72.8645L17.8528 72.7766C17.7001 72.5546 17.6415 72.2812 17.6896 72.016C17.7376 71.7509 17.8886 71.5155 18.1095 71.3612C18.3304 71.2069 18.6033 71.1461 18.8688 71.1922C19.1343 71.2382 19.3708 71.3874 19.5268 71.6071L19.5883 71.6951Z" fill="#FAFAFA"/>
</svg>
