<svg width="32" height="32" viewBox="0 0 32 32" fill="none" xmlns="http://www.w3.org/2000/svg">
<path d="M31.2174 24.9164C31.1079 25.9159 30.2983 26.6967 29.2951 26.7669C29.2121 26.7728 29.1298 26.7786 29.0473 26.7839C28.4356 26.8254 27.9601 27.3333 27.9601 27.9466V30.2647C27.9601 31.0444 27.0676 31.487 26.4474 31.0147C25.3155 30.1525 23.8097 28.87 22.8858 27.5403C22.6672 27.2254 22.3061 27.0419 21.9225 27.044C19.078 27.0584 16.2333 26.9669 13.3887 26.7669C12.5956 26.7116 11.9223 26.2132 11.6223 25.5122C11.5425 25.3282 11.4894 25.1292 11.4665 24.9212C11.0452 21.073 11.0452 17.2241 11.4665 13.3753C11.5761 12.3769 12.3861 11.5998 13.3877 11.5296C17.6253 11.2323 21.8625 11.1727 26.0996 11.3509C27.1645 11.395 28.2299 11.4546 29.2947 11.5296C30.2968 11.5998 31.1074 12.3769 31.217 13.3753C31.6382 17.2225 31.6382 21.0692 31.2174 24.9164Z" fill="#39FF39"/>
<path d="M12.5516 13.2695C12.1202 17.2098 12.1202 21.1505 12.5516 25.0901C12.5749 25.3033 12.6295 25.5067 12.7111 25.6954C12.9199 26.1834 13.3053 26.5755 13.786 26.794C13.6535 26.7854 13.5211 26.7764 13.3886 26.767C12.5954 26.7116 11.922 26.2133 11.6222 25.5121C11.5423 25.3279 11.489 25.129 11.4664 24.9211C11.0448 21.073 11.0448 17.2241 11.4664 13.3752C11.5759 12.377 12.3859 11.5999 13.3874 11.5297C13.583 11.5162 13.7786 11.5027 13.9747 11.4904C13.2118 11.7529 12.643 12.4361 12.5516 13.2695Z" fill="#CBFFCB"/>
<path d="M19.3216 23.4796C19.3228 24.1068 19.8316 24.6146 20.4588 24.6146H25.3131C25.8178 24.6146 26.227 24.2054 26.227 23.7004C26.227 23.4481 26.125 23.2193 25.9596 23.0539C25.7942 22.8885 25.5654 22.7862 25.3131 22.7862H25.6412C26.1459 22.7862 26.5554 22.3773 26.5554 21.872C26.5554 21.6193 26.4534 21.3911 26.2874 21.2255C26.1224 21.0601 25.8939 20.9581 25.6412 20.9581H25.9696C26.4681 20.9581 26.8735 20.5586 26.8832 20.0622C26.8935 19.5492 26.4619 19.1297 25.9489 19.1297H25.6411C26.1459 19.1297 26.5553 18.7206 26.5553 18.2153C26.5553 17.9626 26.4533 17.7344 26.2874 17.5688C26.1223 17.4034 25.8938 17.3014 25.6411 17.3014H23.07C23.0663 17.2956 23.0653 17.2939 23.0616 17.2881L24.0642 15.1522C24.3487 14.5467 24.0881 13.8253 23.4826 13.5409C23.3163 13.4627 23.1412 13.4259 22.9687 13.4259C22.5135 13.4259 22.0775 13.6836 21.8712 14.1228L21.4425 15.0362C21.1893 15.5753 20.7836 16.0311 20.2701 16.3324C19.9311 16.5311 19.6487 16.8341 19.4762 17.2221C19.3586 17.4868 19.3058 17.7657 19.3108 18.0396L19.3216 23.4796Z" fill="#FFE4DB"/>
<path d="M23.8572 13.8147C23.816 13.8103 23.7747 13.8082 23.7334 13.8082C23.2782 13.8082 22.8422 14.0658 22.6359 14.5051L22.2072 15.4185C21.954 15.9576 21.5483 16.4134 21.0348 16.7147C20.6957 16.9134 19.4761 17.2221 19.431 19.5325C19.4274 19.7128 19.3623 19.8794 19.3146 20.0457L19.3107 18.0395C19.3057 17.7656 19.3585 17.4868 19.4761 17.222C19.6486 16.834 19.931 16.531 20.27 16.3323C20.7836 16.031 21.1892 15.5752 21.4424 15.0361L21.8711 14.1227C22.0775 13.6834 22.5135 13.4258 22.9686 13.4258C23.1411 13.4258 23.3162 13.4627 23.4825 13.5407C23.6284 13.6092 23.7543 13.7032 23.8572 13.8147Z" fill="#FFCAB6"/>
<path d="M26.2269 23.7004C26.2269 24.2054 25.8177 24.6146 25.313 24.6146H20.332C19.8049 24.6146 19.3161 24.3599 19.0136 23.9413H25.3131C25.699 23.9413 26.0289 23.7022 26.163 23.3638C26.1633 23.3641 26.1633 23.3646 26.1639 23.365C26.1639 23.365 26.1636 23.3653 26.1639 23.3653C26.2045 23.469 26.2269 23.5822 26.2269 23.7004Z" fill="#FFCAB6"/>
<path d="M26.4908 21.5353C26.5321 21.6395 26.555 21.753 26.555 21.8719C26.555 22.3772 26.1458 22.7863 25.641 22.7863H25.2908C25.1048 22.7863 24.9541 22.6356 24.9541 22.4497C24.9541 22.2637 25.1049 22.113 25.2908 22.113H25.641C26.027 22.113 26.3568 21.8737 26.4908 21.5353Z" fill="#FFCAB6"/>
<path d="M26.8189 19.707C26.8601 19.8113 26.8831 19.9248 26.8831 20.0437C26.8831 20.5489 26.4739 20.9581 25.9691 20.9581H25.6188C25.4329 20.9581 25.2822 20.8074 25.2822 20.6214C25.2822 20.4355 25.4329 20.2848 25.6188 20.2848H25.9691C26.3551 20.2847 26.6849 20.0454 26.8189 19.707Z" fill="#FFCAB6"/>
<path d="M26.4907 17.8787C26.532 17.9829 26.5549 18.0964 26.5549 18.2153C26.5549 18.7205 26.1458 19.1297 25.641 19.1297H25.2907C25.1047 19.1297 24.954 18.979 24.954 18.7931C24.954 18.6071 25.1048 18.4564 25.2907 18.4564H25.641C26.0269 18.4563 26.3567 18.2171 26.4907 17.8787Z" fill="#FFCAB6"/>
<path d="M16.4679 18.0395V23.7403C16.4679 24.1357 16.7884 24.4562 17.1838 24.4562H18.5953C18.9907 24.4562 19.3112 24.1357 19.3112 23.7403V18.0395C19.3112 17.6441 18.9907 17.3236 18.5953 17.3236H17.1838C16.7884 17.3236 16.4679 17.6441 16.4679 18.0395Z" fill="#FAFAFA"/>
<path d="M16.4677 21.9447V23.7406C16.4677 24.1359 16.7884 24.4563 17.1838 24.4563H18.5954C18.9908 24.4563 19.3112 24.136 19.3112 23.7406V21.9447C19.3112 22.3401 18.9908 22.6608 18.5954 22.6608H17.1838C16.7885 22.6608 16.4677 22.3401 16.4677 21.9447Z" fill="#FAFAFA"/>
<path d="M0.771274 13.9313C0.876659 14.8923 1.6551 15.6431 2.61969 15.7106C2.69951 15.7163 2.77877 15.7219 2.85802 15.727C3.4462 15.7669 3.90343 16.2554 3.90343 16.845V19.074C3.90343 19.8238 4.76163 20.2493 5.35806 19.7952C6.44647 18.9661 7.89441 17.7329 8.78281 16.4543C8.99301 16.1515 9.34029 15.9751 9.70908 15.9772C12.4444 15.991 15.1797 15.903 17.915 15.7107C18.6776 15.6575 19.3251 15.1783 19.6136 14.5041C19.6903 14.3272 19.7415 14.1359 19.7634 13.9359C20.1685 10.2354 20.1685 6.53455 19.7634 2.8336C19.658 1.87357 18.8791 1.12632 17.916 1.05881C13.8412 0.772911 9.7669 0.715594 5.69259 0.886984C4.66862 0.929425 3.64422 0.986743 2.62025 1.05881C1.65667 1.12632 0.877159 1.87357 0.771837 2.8336C0.366676 6.53293 0.366676 10.2318 0.771274 13.9313Z" fill="#FFE455"/>
<path d="M1.81518 2.7319C1.40033 6.5208 1.40033 10.3101 1.81518 14.0983C1.83768 14.3034 1.89012 14.499 1.96857 14.6803C2.16927 15.1496 2.53999 15.5266 3.00216 15.7368C2.87477 15.7286 2.74739 15.7199 2.62006 15.7108C1.85737 15.6575 1.20987 15.1784 0.921597 14.504C0.844715 14.3269 0.79346 14.1357 0.771771 13.9358C0.36636 10.2356 0.36636 6.53461 0.771771 2.83359C0.877093 1.87376 1.65591 1.12644 2.61894 1.059C2.80702 1.046 2.99516 1.03299 3.18368 1.02112C2.45005 1.27358 1.90312 1.93058 1.81518 2.7319Z" fill="#FFF2AA"/>
<path d="M31.6821 13.3241C31.548 12.0996 30.5574 11.1484 29.3269 11.0624C28.2482 10.9864 27.1686 10.926 26.1185 10.8829C24.2474 10.8042 22.3524 10.7723 20.4771 10.7863C20.6016 8.11729 20.5196 5.43674 20.2286 2.78269C20.0989 1.59621 19.1399 0.674438 17.9484 0.590931C13.8736 0.30528 9.74331 0.24715 5.67269 0.41829C4.65579 0.460544 3.61751 0.518612 2.58666 0.590931C1.39518 0.674438 0.43572 1.59608 0.305209 2.78263C-0.101578 6.49709 -0.101828 10.2652 0.304521 13.9826C0.435283 15.1714 1.39506 16.0946 2.58635 16.178L2.82625 16.195C3.16734 16.2178 3.43449 16.5032 3.43449 16.8448V19.0737C3.43449 19.6004 3.72752 20.0727 4.19937 20.3063C4.39433 20.4029 4.60316 20.4504 4.81068 20.4504C5.10489 20.4504 5.39642 20.3548 5.64163 20.168C6.10723 19.8137 6.55033 19.4526 6.95862 19.095C7.15332 18.9244 7.17295 18.6282 7.00231 18.4335C6.83173 18.2387 6.53552 18.2191 6.34081 18.3897C5.94865 18.7332 5.5223 19.0805 5.07357 19.4221C4.93856 19.5249 4.76736 19.5413 4.61541 19.4661C4.46302 19.3906 4.37201 19.2439 4.37201 19.0737V16.8448C4.37201 16.0114 3.72052 15.3151 2.89057 15.2596L2.65211 15.2426C1.91298 15.1909 1.31755 14.6179 1.23654 13.8804C0.837569 10.231 0.837819 6.53146 1.23717 2.88489C1.31805 2.14938 1.91317 1.57796 2.65229 1.52614C3.67432 1.45445 4.70354 1.39688 5.71188 1.355C9.74756 1.18542 13.8427 1.24293 17.8829 1.52614C18.6216 1.57796 19.2162 2.14926 19.2967 2.8847C19.6967 6.53453 19.6967 10.2355 19.2966 13.8848C19.2802 14.0353 19.2418 14.1812 19.1823 14.3194C18.9557 14.8487 18.4573 15.2024 17.8815 15.2426C15.182 15.4326 12.4335 15.5219 9.71193 15.5083C9.70824 15.5083 9.70462 15.5083 9.70099 15.5083C9.17932 15.5083 8.69265 15.7614 8.3975 16.1864C8.19029 16.4844 7.93708 16.7988 7.64493 17.1212C7.4711 17.3131 7.48567 17.6095 7.6775 17.7834C7.86926 17.9572 8.16579 17.9427 8.33968 17.7508C8.65871 17.3988 8.93711 17.0526 9.16744 16.7215C9.28733 16.5487 9.48647 16.446 9.70174 16.446H9.7063C10.0537 16.4477 10.4016 16.4477 10.7496 16.4462C10.6064 19.2777 10.6901 22.1435 10.9997 24.9736C11.0279 25.2259 11.0922 25.4697 11.1903 25.6966C11.5676 26.5787 12.3972 27.1679 13.3548 27.2344C16.1893 27.4337 19.0728 27.527 21.9246 27.513H21.9293C22.1587 27.513 22.3719 27.623 22.5003 27.8081C23.4647 29.1958 25.0242 30.5206 26.1627 31.3874C26.4146 31.5793 26.7138 31.6775 27.0158 31.6775C27.2288 31.6775 27.4432 31.6287 27.6433 31.5296C28.1275 31.2898 28.4283 30.8051 28.4283 30.2645V27.9468C28.4283 27.5818 28.7136 27.2765 29.0784 27.252L29.0889 27.2513C29.169 27.2458 29.2491 27.2403 29.3272 27.2344C30.5577 27.1485 31.5482 26.1952 31.6827 24.9675C31.6965 24.841 31.7097 24.7146 31.7229 24.5875C31.7497 24.3299 31.5626 24.0995 31.3051 24.0727C31.0468 24.0458 30.8171 24.2331 30.7903 24.4906C30.7773 24.616 30.7643 24.7409 30.7506 24.8656C30.6657 25.6419 30.0396 26.2448 29.2594 26.2993C29.1809 26.3052 29.1029 26.3106 29.025 26.3159L29.0149 26.3166C28.1602 26.3742 27.4907 27.0903 27.4907 27.9469V30.2646C27.4907 30.4489 27.3922 30.6078 27.2273 30.6894C27.0626 30.771 26.877 30.7531 26.7309 30.6417C25.646 29.8155 24.1649 28.5605 23.2705 27.2733C22.9667 26.8358 22.466 26.5755 21.93 26.5755C21.9264 26.5755 21.9228 26.5755 21.9192 26.5755C19.0909 26.5896 16.2318 26.4968 13.4203 26.2991C12.8148 26.2571 12.2907 25.885 12.0517 25.3263C11.9899 25.1832 11.9494 25.0296 11.9317 24.8706C11.6256 22.0722 11.5444 19.2375 11.6891 16.4375C13.7814 16.4102 15.8786 16.3235 17.9469 16.1779C18.8749 16.1132 19.6784 15.5425 20.0437 14.6894C20.1398 14.4666 20.202 14.2301 20.2286 13.9868C20.311 13.2346 20.3759 12.4801 20.425 11.7243C22.3038 11.7092 24.2036 11.7407 26.0795 11.8195C27.1209 11.8623 28.1913 11.9222 29.2612 11.9975C30.0391 12.0519 30.6652 12.6526 30.7499 13.426C31.085 16.486 31.1509 19.5865 30.9457 22.6412C30.9283 22.8995 31.1237 23.123 31.3819 23.1403C31.3927 23.141 31.4033 23.1414 31.4139 23.1414C31.6584 23.1414 31.8645 22.9516 31.8812 22.704C32.0901 19.5947 32.0231 16.4388 31.6821 13.3241Z" fill="#333333"/>
<path d="M27.3518 20.0717C27.3592 19.7031 27.2191 19.3529 26.9572 19.0856C26.9109 19.0385 26.8616 18.9948 26.8095 18.9548C26.9454 18.7408 27.0242 18.4871 27.0242 18.2153C27.0242 17.8454 26.8801 17.498 26.6192 17.2375C26.3585 16.9764 26.0112 16.8326 25.6413 16.8326H23.7934L24.4887 15.3516C24.8826 14.5132 24.5207 13.5105 23.682 13.1165C23.4568 13.0107 23.2169 12.957 22.9689 12.957C22.3202 12.957 21.7228 13.3364 21.447 13.9236L21.0184 14.8367C20.8008 15.3001 20.46 15.6775 20.0332 15.9279C19.6182 16.1711 19.2919 16.5279 19.0826 16.9611C18.9337 16.8936 18.769 16.855 18.5951 16.855H17.1835C16.5303 16.855 15.999 17.3864 15.999 18.0396V23.7406C15.999 24.3937 16.5303 24.9251 17.1835 24.9251H18.5951C18.8182 24.9251 19.0262 24.862 19.2046 24.7544C19.5383 24.9683 19.9265 25.0834 20.3321 25.0834H25.3132C26.0756 25.0834 26.6958 24.463 26.6958 23.7004C26.6958 23.5299 26.6651 23.3633 26.6046 23.205C26.6031 23.2008 26.6015 23.1966 26.5999 23.1924C26.5685 23.1132 26.5304 23.0378 26.4858 22.9666C26.8131 22.7135 27.0243 22.3169 27.0243 21.8721C27.0243 21.6076 26.9506 21.3545 26.8131 21.1365C27.1332 20.8881 27.3434 20.5031 27.3518 20.0717ZM17.1833 23.9875C17.0471 23.9875 16.9364 23.8768 16.9364 23.7406V18.0396C16.9364 17.9034 17.0471 17.7926 17.1833 17.7926H18.5949C18.7312 17.7926 18.842 17.9034 18.842 18.0396V23.7406C18.842 23.8768 18.7312 23.9875 18.5949 23.9875H17.1833ZM25.9695 20.4893H25.6411C25.3822 20.4893 25.1723 20.6992 25.1723 20.9581C25.1723 21.217 25.3822 21.4269 25.6411 21.4269C25.7603 21.4269 25.872 21.473 25.9562 21.5572C26.0402 21.6412 26.0866 21.7529 26.0866 21.872C26.0866 22.1176 25.8868 22.3174 25.6411 22.3174H25.3131C25.0541 22.3174 24.8443 22.5273 24.8443 22.7862C24.8443 23.0451 25.0541 23.255 25.3131 23.255C25.4321 23.255 25.5439 23.3013 25.628 23.3853C25.67 23.4273 25.7028 23.4764 25.7255 23.5312C25.7261 23.5329 25.7267 23.5345 25.7273 23.5361C25.7477 23.5882 25.7581 23.6435 25.7581 23.7004C25.7581 23.946 25.5584 24.1458 25.3131 24.1458H20.332C20.1252 24.1458 19.9271 24.0907 19.7527 23.9896C19.77 23.9092 19.7796 23.8259 19.7796 23.7405C19.7796 23.7405 19.7796 18.0324 19.7796 18.0309C19.7756 17.8162 19.8176 17.6081 19.9046 17.4124C20.0314 17.1271 20.2397 16.8934 20.5073 16.7367C21.0982 16.39 21.5684 15.8708 21.8669 15.2352L22.2955 14.3221C22.4175 14.0624 22.6818 13.8946 22.9687 13.8946C23.0778 13.8946 23.1836 13.9183 23.2832 13.9651C23.654 14.1393 23.814 14.5824 23.6398 14.953L22.6372 17.0888C22.5708 17.2303 22.5792 17.3956 22.6597 17.5296C22.6669 17.5416 22.6712 17.5479 22.6757 17.5548C22.7619 17.689 22.9105 17.7702 23.0701 17.7702H25.6411C25.7603 17.7702 25.872 17.8162 25.9562 17.9005C26.0403 17.9844 26.0866 18.0962 26.0866 18.2153C26.0866 18.461 25.8868 18.6609 25.6411 18.6609C25.3822 18.6609 25.1723 18.8708 25.1723 19.1297C25.1723 19.3886 25.3822 19.5985 25.6411 19.5985H25.9489C26.0749 19.5985 26.1983 19.6508 26.2876 19.7418C26.3717 19.8277 26.4167 19.9381 26.4144 20.053C26.4097 20.2936 26.2101 20.4893 25.9695 20.4893Z" fill="#333333"/>
<path d="M14.5972 6.36714C14.5972 5.41124 14.1292 4.63354 13.5539 4.63354C12.9787 4.63354 12.5107 5.41124 12.5107 6.36714C12.5107 7.32304 12.9787 8.10073 13.5539 8.10073C14.1292 8.10073 14.5972 7.32304 14.5972 6.36714Z" fill="#333333"/>
<path d="M8.02296 6.36714C8.02296 5.41124 7.55498 4.63354 6.97968 4.63354C6.40444 4.63354 5.93646 5.41124 5.93646 6.36714C5.93646 7.32304 6.40444 8.10073 6.97968 8.10073C7.55498 8.10073 8.02296 7.32304 8.02296 6.36714Z" fill="#333333"/>
<path d="M10.2668 12.5405C11.948 12.5405 13.4565 11.539 14.11 9.98913C14.2105 9.75055 14.0987 9.47565 13.8601 9.37502C13.6214 9.27457 13.3466 9.38633 13.246 9.62491C12.7395 10.8265 11.5701 11.6029 10.2668 11.6029C8.96351 11.6029 7.79409 10.8265 7.28754 9.62491C7.18704 9.38633 6.91189 9.27463 6.67343 9.37502C6.43491 9.47559 6.32302 9.75055 6.42359 9.98913C7.07696 11.539 8.58554 12.5405 10.2668 12.5405Z" fill="#333333"/>
</svg>
