<svg width="80" height="80" viewBox="0 0 80 80" fill="none" xmlns="http://www.w3.org/2000/svg">
<path fill-rule="evenodd" clip-rule="evenodd" d="M41.0062 2.5L43.1931 7.85172L48.9587 8.27781L44.5448 12.0116L45.9212 17.6267L41.0062 14.5825L36.0912 17.6267L37.4676 12.0116L33.0536 8.27781L38.8192 7.85172L41.0062 2.5ZM9.08545 56.5861L18.482 73.1891C18.9364 73.9919 18.6512 75.0205 17.8484 75.4747L14.6523 77.2836C13.8495 77.738 12.8209 77.4528 12.3665 76.65L2.97014 60.047C2.51592 59.2442 2.80092 58.2158 3.60373 57.7612L6.79983 55.9525C7.60264 55.4981 8.63123 55.7833 9.08545 56.5861ZM6.93092 59.0748C6.30733 59.1659 5.87576 59.7455 5.96686 60.3691C6.05795 60.9927 6.63748 61.4242 7.26108 61.3331C7.88467 61.2419 8.31623 60.6625 8.22514 60.0389C8.13389 59.4153 7.55436 58.9836 6.93092 59.0748ZM38.4747 61.3517C39.8833 61.5239 41.0422 61.0925 41.4337 59.6309C41.7869 58.3125 40.9545 57.0738 39.7114 56.6402C35.7836 55.9203 31.9758 54.5438 28.9814 53.4613C24.6697 51.9025 23.5344 51.538 19.282 54L12.6633 57.8322L19.1151 69.232C19.2375 69.228 19.3611 69.2384 19.4797 69.27L36.6714 73.8766C38.8145 74.4509 40.838 74.1923 42.733 73.0258C50.6365 68.1677 58.535 63.3005 66.4348 58.4359C67.1862 57.9733 67.5561 56.9031 67.4478 55.8581C67.3592 55.003 66.9372 54.2238 66.152 53.8261C64.9109 53.1975 62.7619 53.3816 59.4462 55.3127L46.3855 62.9198C44.3073 64.1302 42.1044 64.4631 39.743 64.0853C36.1783 63.4856 32.832 62.4394 29.3545 61.5078C28.6884 61.3298 28.2928 60.6455 28.4708 59.9795C28.6487 59.3134 29.333 58.9178 29.999 59.0958C32.8194 59.8511 35.6155 60.7598 38.4747 61.3517ZM56.3226 35.0377L43.493 50.5858L47.7695 35.0377H56.3226ZM38.4514 50.5028L25.6901 35.0375H34.1976L38.4514 50.5028ZM36.7798 35.0377L40.9834 50.3206L45.187 35.0377H36.7798ZM25.3462 32.5377L29.3958 25.1763L33.4453 32.5377H25.3462ZM31.5319 23.8819L35.557 31.1989L39.5822 23.8819H31.5319ZM42.4305 23.8819H50.4808L46.4556 31.1989L42.4305 23.8819ZM52.6169 25.1763L48.5673 32.5377H56.6664L52.6169 25.1763ZM44.3437 32.5377H37.6689L41.0064 26.4706L44.3437 32.5377ZM77.2467 38.7405L71.895 40.9273L71.4689 46.693L67.7351 42.2789L62.1201 43.6553L65.1644 38.7405L62.1201 33.8255L67.7351 35.2019L71.4689 30.788L71.895 36.5536L77.2467 38.7405ZM66.6322 13.1147L64.3944 18.4453L68.1698 22.8236L62.4086 22.3425L59.4114 27.2863L58.0886 21.6583L52.4606 20.3355L57.4044 17.3383L56.9233 11.577L61.3015 15.3527L66.6322 13.1147ZM4.76592 38.7405L10.1176 36.5536L10.5437 30.788L14.2775 35.2019L19.8926 33.8255L16.8484 38.7405L19.8926 43.6553L14.2775 42.2789L10.5437 46.693L10.1176 40.9273L4.76592 38.7405ZM15.3805 13.1145L17.6183 18.4452L13.8426 22.8234L19.6039 22.3423L22.6011 27.2861L23.9239 21.6581L29.5519 20.3353L24.6081 17.3381L25.0892 11.5769L20.7109 15.3523L15.3805 13.1145Z" fill="#FAFAFA"/>
</svg>
