<svg width="32" height="32" viewBox="0 0 32 32" fill="none" xmlns="http://www.w3.org/2000/svg">
<g clip-path="url(#clip0_267_585)">
<path d="M10.8232 12.6061V29.0938H21.1774V12.6061C21.1774 11.9158 20.6178 11.3561 19.9274 11.3561H12.0732C11.3829 11.3561 10.8232 11.9158 10.8232 12.6061Z" fill="#FFE455"/>
<path d="M19.9274 11.3561H19.2614C19.2872 11.4562 19.3024 11.5605 19.3024 11.6686V19.6771C19.3024 24.3601 15.5062 28.1563 10.8232 28.1563V29.0938H21.1774V12.6061C21.1774 11.9158 20.6178 11.3561 19.9274 11.3561Z" fill="#FFD700"/>
<path d="M21.1768 22.9186V29.0938H30.5934V22.9186C30.5934 22.2283 30.0338 21.6686 29.3434 21.6686H22.4268C21.7364 21.6686 21.1768 22.2283 21.1768 22.9186Z" fill="#FFE4DB"/>
<path d="M29.3434 21.6686H28.6774C28.7032 21.7687 28.7184 21.873 28.7184 21.9811C28.7184 25.3916 25.9537 28.1563 22.5433 28.1563H21.1768V29.0938H30.5934V22.9186C30.5934 22.2283 30.0338 21.6686 29.3434 21.6686Z" fill="#FFCAB6"/>
<path d="M10.8229 20.1061V29.0938H1.40625V20.1061C1.40625 19.4158 1.96588 18.8561 2.65625 18.8561H9.57294C10.2633 18.8561 10.8229 19.4158 10.8229 20.1061Z" fill="#FFCAB6"/>
<path d="M9.57294 18.8561H8.90694C8.93275 18.9562 8.94794 19.0605 8.94794 19.1686V20.6146C8.94794 24.7798 5.57144 28.1563 1.40625 28.1563V29.0938H10.8229V20.1061C10.8229 19.4158 10.2633 18.8561 9.57294 18.8561Z" fill="#FFAF92"/>
<path d="M30.9897 31.5312H1.01031C0.71125 31.5312 0.46875 31.2888 0.46875 30.9896V29.6352C0.46875 29.3361 0.711188 29.0936 1.01031 29.0936H30.9897C31.2888 29.0936 31.5313 29.3361 31.5313 29.6352V30.9896C31.5312 31.2888 31.2888 31.5312 30.9897 31.5312Z" fill="#00D800"/>
<path d="M30.9893 29.0938H29.1143C29.4133 29.0938 29.6558 29.3362 29.6558 29.6353V30.9897C29.6558 31.2888 29.4134 31.5313 29.1143 31.5313H30.9893C31.2883 31.5313 31.5308 31.2889 31.5308 30.9897V29.6353C31.5308 29.3362 31.2884 29.0938 30.9893 29.0938Z" fill="#00D800"/>
<path d="M14.9114 6.69434H17.0896V9.08465H14.9114V6.69434Z" fill="#FEDF30"/>
<path d="M16 6.69434H17.0891V9.08465H16V6.69434Z" fill="#FFE455"/>
<path d="M18.7958 11.3561H13.2051V9.81066C13.2051 9.40966 13.5302 9.08459 13.9312 9.08459H18.0697C18.4707 9.08459 18.7958 9.40966 18.7958 9.81066V11.3561Z" fill="#A0A0A0"/>
<path d="M18.0693 9.08459H16.1943C16.5953 9.08459 16.9204 9.40966 16.9204 9.81066V11.3561H18.7954V9.81066C18.7954 9.40966 18.4703 9.08459 18.0693 9.08459Z" fill="#696969"/>
<path d="M17.0895 6.69431H14.9113C13.5002 5.30056 12.7061 3.39988 12.7061 1.41656V0.71075C12.7061 0.577062 12.8144 0.46875 12.9481 0.46875H19.0526C19.1863 0.46875 19.2946 0.577125 19.2946 0.71075V1.41656C19.2947 3.39988 18.5006 5.30062 17.0895 6.69431Z" fill="#FFE455"/>
<path d="M19.0532 0.46875H18.3577V0.479062C18.3577 1.47225 18.1585 2.44475 17.7825 3.34319C17.1663 4.81556 15.7055 5.75681 14.1094 5.75681C14.3489 6.08881 14.6167 6.40281 14.9118 6.69431H17.09C18.5011 5.30056 19.2952 3.39988 19.2952 1.41656V0.71075C19.2952 0.577125 19.1868 0.46875 19.0532 0.46875Z" fill="#FFD700"/>
<path d="M25.8854 22.8752C25.1763 22.8752 24.5625 23.3797 24.4259 24.0748C24.3761 24.3288 24.5415 24.5751 24.7956 24.6251C25.0497 24.6747 25.296 24.5094 25.3459 24.2554C25.3962 23.9989 25.6232 23.8127 25.8854 23.8127C26.1887 23.8127 26.4353 24.0593 26.4353 24.3626C26.4353 24.6658 26.1886 24.9124 25.8854 24.9124C25.6266 24.9124 25.4167 25.1222 25.4167 25.3812C25.4167 25.6401 25.6266 25.8499 25.8854 25.8499C26.1887 25.8499 26.4353 26.0966 26.4353 26.3999C26.4353 26.7031 26.1886 26.9498 25.8854 26.9498C25.5829 26.9498 25.3356 26.7004 25.3356 26.3999C25.3356 26.1409 25.1257 25.9311 24.8668 25.9311C24.6079 25.9311 24.3981 26.1409 24.3981 26.3999C24.3981 27.2073 25.0707 27.8873 25.8854 27.8873C26.7056 27.8873 27.3728 27.22 27.3728 26.3999C27.3728 26.0059 27.2186 25.6476 26.9678 25.3812C27.2186 25.1148 27.3728 24.7564 27.3728 24.3626C27.3728 23.5424 26.7056 22.8752 25.8854 22.8752ZM7.50806 22.9642C7.50806 22.1441 6.84081 21.4768 6.02069 21.4768C5.3115 21.4768 4.69775 21.9813 4.56119 22.6764C4.51131 22.9304 4.67681 23.1768 4.93081 23.2267C5.18488 23.2763 5.43119 23.1111 5.48112 22.8571C5.5315 22.6006 5.75844 22.4143 6.02069 22.4143C6.31538 22.4143 6.55675 22.6474 6.57 22.9389C6.58275 23.2195 6.42613 23.4082 6.21238 23.7136C5.58194 24.6144 5.20581 25.1069 5.00375 25.3715C4.75069 25.7029 4.63519 25.8541 4.71475 26.1129C4.76162 26.2652 4.877 26.3822 5.03125 26.4336C5.22831 26.4994 6.56394 26.472 7.214 26.4639C7.47288 26.4606 7.68006 26.2482 7.67681 25.9893C7.67356 25.7324 7.46438 25.5264 7.20819 25.5264C7.20619 25.5264 7.20419 25.5264 7.20219 25.5265C6.81337 25.5313 6.40131 25.5346 6.05519 25.5354C6.27475 25.2413 6.5765 24.8284 6.98037 24.2512C7.28006 23.823 7.50806 23.4006 7.50806 22.9642ZM16.4254 17.7658H15.5746C15.3157 17.7658 15.1058 17.9756 15.1058 18.2345C15.1058 18.4934 15.3157 18.7033 15.5746 18.7033H15.9567V22.2154C15.9567 22.4743 16.1666 22.6841 16.4254 22.6841C16.6843 22.6841 16.8942 22.4743 16.8942 22.2154V18.2345C16.8942 17.9756 16.6843 17.7658 16.4254 17.7658ZM31.0625 28.6287V22.9186C31.0625 21.9709 30.2915 21.1999 29.3438 21.1999H27.6984C27.4395 21.1999 27.2296 21.4097 27.2296 21.6686C27.2296 21.9276 27.4395 22.1374 27.6984 22.1374H29.3438C29.7746 22.1374 30.125 22.4878 30.125 22.9186V28.625H21.6458V22.9186C21.6458 22.4878 21.9963 22.1374 22.4271 22.1374H25.8234C26.0823 22.1374 26.2921 21.9276 26.2921 21.6686C26.2921 21.4097 26.0823 21.1999 25.8234 21.1999H22.4271C22.1458 21.1999 21.8804 21.2682 21.6458 21.3885V12.6061C21.6458 11.6584 20.8748 10.8874 19.9271 10.8874H19.2641V9.81063C19.2641 9.15181 18.7281 8.61588 18.0693 8.61588H17.5578V6.88656C17.8847 6.54656 18.1786 6.17794 18.4377 5.78725C19.8252 5.73056 21.0994 4.90581 21.7134 3.65325L22.3946 2.26388C22.5259 1.99619 22.5102 1.68544 22.3526 1.43263C22.1949 1.17975 21.9227 1.02875 21.6244 1.02875H19.7631V0.71075C19.7631 0.318875 19.4442 0 19.0522 0H12.9477C12.5557 0 12.2369 0.318875 12.2369 0.71075V1.02875H10.3756C10.0773 1.02875 9.80512 1.17975 9.64744 1.43263C9.48987 1.68544 9.47412 1.99619 9.60538 2.26388L10.2866 3.65325C10.9006 4.90581 12.1748 5.73056 13.5623 5.78725C13.8214 6.17788 14.1152 6.54656 14.4421 6.88656V8.61588H13.9307C13.2719 8.61588 12.7359 9.15181 12.7359 9.81063V10.8874H12.0729C11.1251 10.8874 10.3541 11.6584 10.3541 12.6061V18.576C10.1196 18.4557 9.85413 18.3874 9.57288 18.3874H2.65625C1.7085 18.3874 0.9375 19.1584 0.9375 20.1061V27.2188C0.9375 27.4777 1.14737 27.6875 1.40625 27.6875C1.66513 27.6875 1.875 27.4777 1.875 27.2188V20.1061C1.875 19.6753 2.22544 19.3249 2.65625 19.3249H9.57294C10.0038 19.3249 10.3542 19.6753 10.3542 20.1061V28.625H1.01031C0.453188 28.625 0 29.0783 0 29.6353V30.9897C0 31.5467 0.453188 32 1.01031 32H30.9897C31.5468 32 32.0001 31.5467 32.0001 30.9897V29.6353C32 29.1028 31.5856 28.6663 31.0625 28.6287ZM19.7432 1.96625H21.4964L20.8716 3.24056C20.5012 3.99625 19.8122 4.54531 19.0158 4.757C19.4243 3.8825 19.6743 2.93475 19.7432 1.96625ZM11.1284 3.24056L10.5036 1.96625H12.2568C12.3258 2.93475 12.5757 3.8825 12.9843 4.757C12.1878 4.54531 11.4988 3.99619 11.1284 3.24056ZM13.1744 0.9375H18.8256C18.8675 2.89106 18.2784 4.78719 16.8928 6.22556H15.1072C13.7153 4.77575 13.1374 2.919 13.1744 0.9375ZM16.6203 7.16306V8.61588H15.3796V7.16306H16.6203ZM13.6734 9.81069C13.6734 9.66881 13.7889 9.55344 13.9307 9.55344H18.0693C18.2112 9.55344 18.3266 9.66887 18.3266 9.81069V10.8874H13.6735V9.81069H13.6734ZM11.2917 12.6061C11.2917 12.1753 11.6421 11.8249 12.0729 11.8249H19.9271C20.3579 11.8249 20.7084 12.1753 20.7084 12.6061V28.625H11.2917V12.6061ZM31.0625 30.9897C31.0625 31.0299 31.0299 31.0625 30.9897 31.0625H1.01031C0.970188 31.0625 0.9375 31.0299 0.9375 30.9897V29.6353C0.9375 29.5951 0.970125 29.5625 1.01031 29.5625H30.9897C31.0299 29.5625 31.0626 29.5951 31.0626 29.6353V30.9897H31.0625Z" fill="#333333"/>
</g>
<defs>
<clipPath id="clip0_267_585">
<rect width="32" height="32" fill="white"/>
</clipPath>
</defs>
</svg>
