<svg width="131" height="118" viewBox="0 0 131 118" fill="none" xmlns="http://www.w3.org/2000/svg">
<g opacity="0.2" filter="url(#filter0_b_360_12470)">
<ellipse cx="62.5" cy="59" rx="58.5" ry="59" fill="white"/>
<path d="M120.5 59C120.5 91.3127 94.5285 117.5 62.5 117.5C30.4715 117.5 4.5 91.3127 4.5 59C4.5 26.6873 30.4715 0.5 62.5 0.5C94.5285 0.5 120.5 26.6873 120.5 59Z" stroke="white" stroke-opacity="0.68"/>
</g>
<g filter="url(#filter1_b_360_12470)">
<circle cx="64.0866" cy="58.1438" r="39.5827" fill="white"/>
</g>
<path d="M67.8779 42.504C70.3231 39.7955 74.8149 41.6562 74.6289 45.3002C74.5116 47.595 76.4046 49.4877 78.6994 49.3707C82.3434 49.1845 84.2041 53.6765 81.4956 56.1217C79.7901 57.6615 79.7901 60.3385 81.4956 61.8782C84.2041 64.3232 82.3434 68.8152 78.6994 68.6292C76.4046 68.512 74.5116 70.405 74.6289 72.6997C74.8151 76.3437 70.3231 78.2045 67.8779 75.496C66.3381 73.7905 63.6611 73.7905 62.1214 75.496C59.6761 78.2042 55.1844 76.3437 55.3704 72.6997C55.4876 70.405 53.5946 68.512 51.2999 68.6292C47.6559 68.8155 45.7951 64.3235 48.5036 61.8782C50.2091 60.3385 50.2091 57.6615 48.5036 56.1217C45.7951 53.6765 47.6559 49.1847 51.2999 49.3707C53.5946 49.488 55.4876 47.595 55.3704 45.3002C55.1841 41.6562 59.6761 39.7955 62.1214 42.504C63.6611 44.2095 66.3381 44.2095 67.8779 42.504Z" fill="#FFC91D"/>
<path d="M81.4983 61.8781C79.7928 60.3383 79.7928 57.6613 81.4983 56.1216C83.8373 54.0098 82.7685 50.3716 80.086 49.5386C80.5318 50.8891 80.264 52.4788 78.9983 53.6216C77.2928 55.1613 77.2928 57.8383 78.9983 59.3781C81.7068 61.8231 79.846 66.3151 76.202 66.1291C73.9073 66.0118 72.0143 67.9048 72.1315 70.1996C72.3178 73.8436 67.8258 75.7043 65.3805 72.9958C63.8408 71.2901 61.1638 71.2901 59.624 72.9958C58.4813 74.2616 56.8915 74.5293 55.541 74.0836C56.374 76.7661 60.0123 77.8351 62.124 75.4958C63.6638 73.7901 66.3408 73.7901 67.8805 75.4958C70.3258 78.2041 74.8175 76.3436 74.6315 72.6996C74.5143 70.4048 76.4073 68.5118 78.702 68.6291C82.346 68.8151 84.2068 64.3233 81.4983 61.8781Z" fill="#FFA91A"/>
<path d="M81.4905 61.8781C79.785 60.3384 79.785 57.6614 81.4905 56.1216C83.5658 54.2481 82.9585 51.1734 80.9223 49.9214C81.844 51.4011 81.7913 53.4716 80.2405 54.8716C78.535 56.4114 78.535 59.0884 80.2405 60.6281C82.949 63.0731 81.0883 67.5651 77.4443 67.3791C75.1495 67.2619 73.2565 69.1549 73.3738 71.4496C73.56 75.0936 69.068 76.9544 66.6228 74.2459C65.083 72.5401 62.406 72.5401 60.8663 74.2459C59.4665 75.7964 57.3958 75.8494 55.916 74.9276C57.1678 76.9641 60.2428 77.5711 62.1163 75.4959C63.656 73.7901 66.333 73.7901 67.8728 75.4959C70.318 78.2041 74.8098 76.3436 74.6238 72.6996C74.5065 70.4049 76.3995 68.5119 78.6943 68.6291C82.3383 68.8151 84.199 64.3234 81.4905 61.8781Z" fill="#F79219"/>
<path d="M71.1311 70.6583C77.5593 67.2735 80.0265 59.3185 76.6417 52.8903C73.2569 46.4621 65.3019 43.9949 58.8737 47.3797C52.4455 50.7645 49.9783 58.7195 53.3631 65.1477C56.7479 71.5759 64.7029 74.0431 71.1311 70.6583Z" fill="#F79219"/>
<path d="M65.0014 68.7659C70.395 68.7659 74.7674 64.3935 74.7674 58.9999C74.7674 53.6063 70.395 49.2339 65.0014 49.2339C59.6077 49.2339 55.2354 53.6063 55.2354 58.9999C55.2354 64.3935 59.6077 68.7659 65.0014 68.7659Z" fill="#414042"/>
<path d="M53.416 59.4999C53.1385 59.4999 52.916 59.2749 52.916 58.9999C52.916 58.9974 52.916 58.9974 52.916 58.9974C52.9185 58.7224 53.141 58.4999 53.416 58.4999C53.6885 58.4999 53.9135 58.7224 53.916 58.9974V58.9999C53.916 59.2749 53.691 59.4999 53.416 59.4999ZM53.586 57.5099C53.5585 57.5099 53.5285 57.5074 53.501 57.5024C53.3685 57.4799 53.2535 57.4074 53.176 57.2974C53.101 57.1899 53.071 57.0574 53.0935 56.9249C53.4685 54.7674 54.4285 52.7499 55.8735 51.0874C57.3035 49.4399 59.146 48.2074 61.206 47.5249C61.8635 47.3049 62.546 47.1449 63.2335 47.0424C63.5035 47.0024 63.761 47.1974 63.801 47.4649C63.841 47.7374 63.651 47.9924 63.3785 48.0324C62.746 48.1249 62.121 48.2749 61.521 48.4724C57.6285 49.7624 54.7785 53.0674 54.0785 57.0949C54.036 57.3374 53.8285 57.5099 53.586 57.5099Z" fill="#FFA91A"/>
<path d="M65.5962 52.6535L66.7379 56.1677C66.8217 56.4252 67.0614 56.5995 67.3322 56.5995H70.8039C71.4797 56.5995 71.7604 57.4642 71.2139 57.8612L68.4052 59.902C68.1862 60.061 68.0944 60.3432 68.1782 60.6007L69.3199 64.115C69.5069 64.6907 68.8479 65.1695 68.3582 64.8137L65.4114 62.6727C65.1669 62.4952 64.8359 62.4952 64.5914 62.6727L61.6447 64.8137C61.1549 65.1695 60.4959 64.6907 60.6829 64.115L61.8247 60.6007C61.9084 60.3432 61.8167 60.0612 61.5977 59.902L58.7889 57.8612C58.2422 57.464 58.5232 56.5995 59.1989 56.5995H62.6707C62.9414 56.5995 63.1814 56.4252 63.2649 56.1677L64.4067 52.6535C64.5947 52.0777 65.4092 52.0777 65.5962 52.6535Z" fill="white"/>
<path d="M66.3071 32.2927V37.89C66.3071 38.612 65.7218 39.1972 64.9998 39.1972C64.2778 39.1972 63.6926 38.612 63.6926 37.89V32.2927C63.6926 31.5707 64.2778 30.9855 64.9998 30.9855C65.7218 30.9855 66.3071 31.571 66.3071 32.2927ZM64.9998 78.8027C64.2778 78.8027 63.6926 79.388 63.6926 80.11V85.7072C63.6926 86.4292 64.2778 87.0145 64.9998 87.0145C65.7218 87.0145 66.3071 86.4292 66.3071 85.7072V80.11C66.3071 79.388 65.7218 78.8027 64.9998 78.8027ZM91.7071 57.6927H86.1098C85.3878 57.6927 84.8026 58.278 84.8026 59C84.8026 59.722 85.3878 60.3072 86.1098 60.3072H91.7071C92.4291 60.3072 93.0143 59.722 93.0143 59C93.0143 58.278 92.4288 57.6927 91.7071 57.6927ZM45.1974 59C45.1974 58.278 44.6121 57.6927 43.8901 57.6927H38.2926C37.5706 57.6927 36.9854 58.278 36.9854 59C36.9854 59.722 37.5706 60.3072 38.2926 60.3072H43.8899C44.6119 60.3072 45.1974 59.722 45.1974 59ZM80.8511 44.9975L84.8091 41.0395C85.3196 40.529 85.3196 39.7012 84.8091 39.1907C84.2986 38.6802 83.4708 38.6802 82.9603 39.1907L79.0023 43.1487C78.4918 43.6592 78.4918 44.487 79.0023 44.9975C79.5128 45.508 80.3406 45.508 80.8511 44.9975ZM49.1486 73.0025L45.1906 76.9605C44.6801 77.471 44.6801 78.2987 45.1906 78.8092C45.7011 79.3197 46.5289 79.3197 47.0394 78.8092L50.9973 74.8512C51.5078 74.3407 51.5078 73.513 50.9973 73.0025C50.4868 72.492 49.6591 72.492 49.1486 73.0025ZM80.8511 73.0025C80.3406 72.492 79.5128 72.492 79.0023 73.0025C78.4918 73.513 78.4918 74.3407 79.0023 74.8512L82.9603 78.8092C83.4708 79.3197 84.2986 79.3197 84.8091 78.8092C85.3196 78.2987 85.3196 77.471 84.8091 76.9605L80.8511 73.0025ZM47.0394 39.1907C46.5289 38.6802 45.7011 38.6802 45.1906 39.1907C44.6801 39.7012 44.6801 40.529 45.1906 41.0395L49.1486 44.9975C49.6591 45.508 50.4868 45.508 50.9973 44.9975C51.5078 44.487 51.5078 43.6592 50.9973 43.1487L47.0394 39.1907Z" fill="#FFA91A"/>
<path d="M50.1244 72.621C50.1394 72.974 50.0122 73.3317 49.7429 73.6012L45.7849 77.5592C45.5154 77.8287 45.1574 77.956 44.8047 77.941C44.8182 78.2567 44.9452 78.5682 45.1862 78.8092C45.6967 79.3197 46.5244 79.3197 47.0349 78.8092L50.9929 74.8512C51.5034 74.3407 51.5034 73.513 50.9929 73.0025C50.7519 72.7615 50.4402 72.6345 50.1244 72.621Z" fill="#F79219"/>
<path d="M83.5623 39.7893L79.6043 43.7473C79.3348 44.0168 78.977 44.1441 78.624 44.1288C78.6375 44.4446 78.7645 44.7561 79.0055 44.9973C79.516 45.5078 80.3438 45.5078 80.8543 44.9973L84.8123 41.0393C85.3228 40.5288 85.3228 39.7011 84.8123 39.1906C84.5713 38.9496 84.2595 38.8223 83.944 38.8088C83.9588 39.1621 83.8318 39.5198 83.5623 39.7893Z" fill="#F79219"/>
<path d="M49.7511 41.8987C50.2616 42.4092 50.2616 43.2369 49.7511 43.7474C49.2406 44.2579 48.4128 44.2579 47.9023 43.7474L49.1523 44.9974C49.6628 45.5079 50.4906 45.5079 51.0011 44.9974C51.5116 44.4869 51.5116 43.6592 51.0011 43.1487L49.7511 41.8987Z" fill="#F79219"/>
<path d="M45.1961 58.9998C45.1961 58.2966 44.6409 57.7231 43.9449 57.6938C43.9456 57.7123 43.9461 57.7311 43.9461 57.7498C43.9461 58.4718 43.3609 59.0571 42.6389 59.0571H37.0414C37.0226 59.0571 37.0039 59.0566 36.9854 59.0558C37.0146 59.7518 37.5881 60.3071 38.2914 60.3071H43.8886C44.6106 60.3071 45.1961 59.7218 45.1961 58.9998Z" fill="#F79219"/>
<path d="M83.5568 75.7103C84.0673 76.2208 84.0673 77.0486 83.5568 77.5591C83.0463 78.0696 82.2185 78.0696 81.708 77.5591L82.958 78.8091C83.4685 79.3196 84.2963 79.3196 84.8068 78.8091C85.3173 78.2986 85.3173 77.4708 84.8068 76.9603L83.5568 75.7103Z" fill="#F79219"/>
<path d="M65.0554 78.8037C65.0561 78.8222 65.0566 78.841 65.0566 78.8597V84.457C65.0566 85.179 64.4714 85.7642 63.7494 85.7642C63.7306 85.7642 63.7119 85.7637 63.6934 85.763C63.7226 86.459 64.2961 87.0142 64.9994 87.0142C65.7214 87.0142 66.3066 86.429 66.3066 85.707V80.1097C66.3066 79.4065 65.7514 78.833 65.0554 78.8037Z" fill="#F79219"/>
<path d="M91.7639 57.6938C91.7647 57.7123 91.7652 57.7311 91.7652 57.7498C91.7652 58.4718 91.1799 59.0571 90.4579 59.0571H84.8607C84.8419 59.0571 84.8232 59.0566 84.8047 59.0558C84.8339 59.7518 85.4074 60.3071 86.1107 60.3071H91.7079C92.4299 60.3071 93.0152 59.7218 93.0152 58.9998C93.0152 58.2966 92.4599 57.7231 91.7639 57.6938Z" fill="#F79219"/>
<path d="M65.0554 30.9868C65.0561 31.0053 65.0566 31.0241 65.0566 31.0428V36.6401C65.0566 37.3621 64.4714 37.9473 63.7494 37.9473C63.7306 37.9473 63.7119 37.9468 63.6934 37.9461C63.7226 38.6421 64.2961 39.1973 64.9994 39.1973C65.7214 39.1973 66.3066 38.6121 66.3066 37.8901V32.2926C66.3066 31.5896 65.7514 31.0161 65.0554 30.9868Z" fill="#F79219"/>
<path fill-rule="evenodd" clip-rule="evenodd" d="M21.6758 22.3378C17.505 22.3378 14.1362 18.9527 14.1362 14.7915C14.1362 18.9527 10.7541 22.3378 6.59668 22.3378C10.7541 22.3378 14.1362 25.7095 14.1362 29.8706C14.1362 25.7095 17.505 22.3378 21.6758 22.3378Z" fill="#FFD51B"/>
<path fill-rule="evenodd" clip-rule="evenodd" d="M124.403 84.5389C120.233 84.5389 116.864 81.1538 116.864 76.9927C116.864 81.1538 113.482 84.5389 109.324 84.5389C113.482 84.5389 116.864 87.9107 116.864 92.0718C116.864 87.9107 120.233 84.5389 124.403 84.5389Z" fill="#FFD51B"/>
<path fill-rule="evenodd" clip-rule="evenodd" d="M7.53957 30.8163C5.45416 30.8163 3.76978 29.1238 3.76978 27.0432C3.76978 29.1238 2.07873 30.8163 0 30.8163C2.07873 30.8163 3.76978 32.5022 3.76978 34.5828C3.76978 32.5022 5.45416 30.8163 7.53957 30.8163Z" fill="white"/>
<path fill-rule="evenodd" clip-rule="evenodd" d="M131 93.9601C128.914 93.9601 127.23 92.2676 127.23 90.187C127.23 92.2676 125.539 93.9601 123.46 93.9601C125.539 93.9601 127.23 95.646 127.23 97.7266C127.23 95.646 128.914 93.9601 131 93.9601Z" fill="white"/>
<path fill-rule="evenodd" clip-rule="evenodd" d="M109.093 18.5646C107.008 18.5646 105.323 16.8721 105.323 14.7915C105.323 16.8721 103.632 18.5646 101.554 18.5646C103.632 18.5646 105.323 20.2505 105.323 22.3311C105.323 20.2505 107.008 18.5646 109.093 18.5646Z" fill="white"/>
<defs>
<filter id="filter0_b_360_12470" x="-29.6" y="-33.6" width="184.2" height="185.2" filterUnits="userSpaceOnUse" color-interpolation-filters="sRGB">
<feFlood flood-opacity="0" result="BackgroundImageFix"/>
<feGaussianBlur in="BackgroundImageFix" stdDeviation="16.8"/>
<feComposite in2="SourceAlpha" operator="in" result="effect1_backgroundBlur_360_12470"/>
<feBlend mode="normal" in="SourceGraphic" in2="effect1_backgroundBlur_360_12470" result="shape"/>
</filter>
<filter id="filter1_b_360_12470" x="-9.09609" y="-15.039" width="146.365" height="146.366" filterUnits="userSpaceOnUse" color-interpolation-filters="sRGB">
<feFlood flood-opacity="0" result="BackgroundImageFix"/>
<feGaussianBlur in="BackgroundImageFix" stdDeviation="16.8"/>
<feComposite in2="SourceAlpha" operator="in" result="effect1_backgroundBlur_360_12470"/>
<feBlend mode="normal" in="SourceGraphic" in2="effect1_backgroundBlur_360_12470" result="shape"/>
</filter>
</defs>
</svg>
