<svg width="28" height="28" viewBox="0 0 28 28" fill="none" xmlns="http://www.w3.org/2000/svg">
<circle cx="14" cy="14" r="14" fill="#D9ECFF"/>
<g clip-path="url(#clip0_350_7100)">
<path d="M14 14.0352L13.5676 14.5836H13.5571C12.5973 14.6996 11.7219 15.1847 11.1102 15.9547C11.0152 16.0813 10.8571 16.1445 10.6883 16.1551C10.5301 16.1551 10.3719 16.0707 10.277 15.9442L5.10543 9.07814C5.03168 8.98318 5 8.85662 5 8.7406L7.5779 7.68591L9.85508 8.7406L14 14.0352Z" fill="#FF4500"/>
<path d="M23 8.7406C23 8.85662 22.9683 8.98314 22.8946 9.0781L17.7231 15.9441C17.6281 16.0707 17.4699 16.1551 17.3118 16.1551C17.3012 16.1551 17.3012 16.1551 17.3012 16.1551C17.143 16.1551 16.9848 16.0812 16.8899 15.9547C16.2781 15.1847 15.3923 14.6996 14.4324 14.5835L14 14.0352L18.1555 8.7406L20.3908 7.68591L23 8.7406Z" fill="#B33000"/>
<path d="M14 23C11.3829 23 9.25391 20.871 9.25391 18.2539C9.25391 15.6368 11.3829 13.5078 14 13.5078C16.6171 13.5078 18.7461 15.6368 18.7461 18.2539C18.7461 20.871 16.6171 23 14 23Z" fill="#FFE455"/>
<path d="M18.7461 18.2539C18.7461 15.6368 16.6171 13.5078 14 13.5078V23C16.6171 23 18.7461 20.871 18.7461 18.2539Z" fill="#FFD700"/>
<path d="M15.582 17.1992C15.582 17.8637 15.1601 18.4648 14.5379 18.6863C14.5379 18.9816 14.2953 19.2664 14 19.2664C13.7152 19.2664 13.4727 19.0765 13.4727 18.7812C13.4727 18.3382 13.673 17.9691 14 17.7793C14.0527 17.7476 14.116 17.716 14.1793 17.6949C14.3902 17.6211 14.5273 17.4207 14.5273 17.1992C14.5273 16.9039 14.2953 16.6719 14 16.6719C13.7047 16.6719 13.4727 16.9039 13.4727 17.1992C13.4727 17.4945 13.2407 17.7266 12.9453 17.7266C12.65 17.7266 12.418 17.4945 12.418 17.1992C12.418 16.3238 13.1246 15.6172 14 15.6172C14.8754 15.6172 15.582 16.3238 15.582 17.1992Z" fill="#454545"/>
<path d="M14 20.8906C14.2912 20.8906 14.5273 20.6545 14.5273 20.3633C14.5273 20.072 14.2912 19.8359 14 19.8359C13.7088 19.8359 13.4727 20.072 13.4727 20.3633C13.4727 20.6545 13.7088 20.8906 14 20.8906Z" fill="#454545"/>
<path d="M14.5273 20.3633C14.5273 20.072 14.2912 19.8359 14 19.8359V20.8906C14.2912 20.8906 14.5273 20.6545 14.5273 20.3633Z" fill="#333333"/>
<path d="M15.582 17.1992C15.582 17.8637 15.1601 18.4648 14.5379 18.6863C14.5379 18.9816 14.2953 19.2664 14 19.2664V17.7793C14.0527 17.7476 14.116 17.716 14.1793 17.6949C14.3902 17.6211 14.5273 17.4207 14.5273 17.1992C14.5273 16.9039 14.2953 16.6719 14 16.6719V15.6172C14.8754 15.6172 15.582 16.3238 15.582 17.1992Z" fill="#333333"/>
<path d="M23 8.74059H5C5 8.6457 5.03168 8.55075 5.08441 8.46637L7.22894 5.232C7.33438 5.08434 7.49261 5 7.67188 5H20.3281C20.5074 5 20.6656 5.08434 20.7711 5.232L22.9156 8.46637C22.9683 8.55078 23 8.6457 23 8.74059Z" fill="#D93B00"/>
<path d="M14 8.74059H23C23 8.6457 22.9683 8.55075 22.9156 8.46637L20.7711 5.232C20.6656 5.0843 20.5074 5 20.3281 5H14V8.74059Z" fill="#FF4500"/>
</g>
<defs>
<clipPath id="clip0_350_7100">
<rect width="18" height="18" fill="white" transform="translate(5 5)"/>
</clipPath>
</defs>
</svg>
