<svg width="28" height="28" viewBox="0 0 28 28" fill="none" xmlns="http://www.w3.org/2000/svg">
<circle cx="14" cy="14" r="14" fill="#D9ECFF"/>
<path d="M14.8095 9.36051C15.4972 8.59875 16.7606 9.12208 16.7082 10.147C16.6753 10.7924 17.2077 11.3247 17.8531 11.2918C18.8779 11.2394 19.4013 12.5028 18.6395 13.1905C18.1598 13.6236 18.1598 14.3765 18.6395 14.8095C19.4013 15.4972 18.8779 16.7606 17.8531 16.7082C17.2077 16.6753 16.6753 17.2077 16.7082 17.8531C16.7606 18.8779 15.4972 19.4013 14.8095 18.6395C14.3765 18.1598 13.6236 18.1598 13.1905 18.6395C12.5028 19.4012 11.2395 18.8779 11.2918 17.8531C11.3248 17.2077 10.7924 16.6753 10.147 16.7082C9.12208 16.7606 8.59875 15.4972 9.36051 14.8095C9.84018 14.3765 9.84018 13.6236 9.36051 13.1905C8.59875 12.5028 9.12208 11.2395 10.147 11.2918C10.7924 11.3248 11.3248 10.7924 11.2918 10.147C11.2394 9.12208 12.5028 8.59875 13.1905 9.36051C13.6236 9.84018 14.3765 9.84018 14.8095 9.36051Z" fill="#FFC91D"/>
<path d="M18.6393 14.8095C18.1597 14.3764 18.1597 13.6235 18.6393 13.1905C19.2972 12.5965 18.9966 11.5733 18.2421 11.339C18.3675 11.7188 18.2922 12.1659 17.9362 12.4873C17.4565 12.9204 17.4565 13.6733 17.9362 14.1063C18.698 14.794 18.1746 16.0574 17.1498 16.0051C16.5044 15.9721 15.972 16.5045 16.0049 17.1499C16.0573 18.1748 14.794 18.6981 14.1062 17.9363C13.6732 17.4566 12.9203 17.4566 12.4872 17.9363C12.1658 18.2923 11.7187 18.3676 11.3389 18.2423C11.5731 18.9967 12.5964 19.2974 13.1903 18.6395C13.6234 18.1597 14.3763 18.1597 14.8094 18.6395C15.4971 19.4012 16.7604 18.8779 16.7081 17.853C16.6751 17.2076 17.2075 16.6752 17.8529 16.7082C18.8778 16.7605 19.4011 15.4972 18.6393 14.8095Z" fill="#FFA91A"/>
<path d="M18.6391 14.8095C18.1594 14.3764 18.1594 13.6235 18.6391 13.1905C19.2228 12.6636 19.052 11.7988 18.4793 11.4467C18.7385 11.8628 18.7237 12.4452 18.2876 12.8389C17.8079 13.272 17.8079 14.0249 18.2876 14.4579C19.0493 15.1456 18.526 16.409 17.5011 16.3566C16.8557 16.3237 16.3233 16.8561 16.3563 17.5015C16.4087 18.5264 15.1453 19.0497 14.4576 18.2879C14.0245 17.8082 13.2716 17.8082 12.8385 18.2879C12.4449 18.724 11.8625 18.7389 11.4463 18.4797C11.7983 19.0524 12.6632 19.2231 13.1901 18.6395C13.6232 18.1597 14.3761 18.1597 14.8091 18.6395C15.4969 19.4012 16.7602 18.8779 16.7078 17.853C16.6749 17.2076 17.2073 16.6752 17.8527 16.7082C18.8775 16.7605 19.4009 15.4972 18.6391 14.8095Z" fill="#F79219"/>
<path d="M15.7249 17.2788C17.5328 16.3269 18.2267 14.0895 17.2747 12.2816C16.3227 10.4737 14.0854 9.77977 12.2775 10.7317C10.4695 11.6837 9.77563 13.9211 10.7276 15.729C11.6796 17.5369 13.9169 18.2308 15.7249 17.2788Z" fill="#F79219"/>
<path d="M13.9996 16.7467C15.5166 16.7467 16.7463 15.5169 16.7463 14C16.7463 12.483 15.5166 11.2533 13.9996 11.2533C12.4827 11.2533 11.2529 12.483 11.2529 14C11.2529 15.5169 12.4827 16.7467 13.9996 16.7467Z" fill="#414042"/>
<path d="M10.7422 14.1406C10.6641 14.1406 10.6016 14.0774 10.6016 14C10.6016 13.9993 10.6016 13.9993 10.6016 13.9993C10.6023 13.922 10.6648 13.8594 10.7422 13.8594C10.8188 13.8594 10.8821 13.922 10.8828 13.9993V14C10.8828 14.0774 10.8195 14.1406 10.7422 14.1406ZM10.79 13.5809C10.7823 13.5809 10.7738 13.5802 10.7661 13.5788C10.7288 13.5725 10.6965 13.5521 10.6747 13.5212C10.6536 13.4909 10.6452 13.4537 10.6515 13.4164C10.757 12.8096 11.027 12.2422 11.4334 11.7746C11.8355 11.3113 12.3537 10.9646 12.9331 10.7727C13.118 10.7108 13.31 10.6658 13.5034 10.637C13.5793 10.6257 13.6517 10.6806 13.663 10.7558C13.6742 10.8324 13.6208 10.9042 13.5441 10.9154C13.3662 10.9414 13.1905 10.9836 13.0217 11.0392C11.927 11.402 11.1254 12.3315 10.9285 13.4642C10.9166 13.5324 10.8582 13.5809 10.79 13.5809Z" fill="#FFA91A"/>
<path d="M14.1667 12.2151L14.4878 13.2035C14.5114 13.2759 14.5788 13.3249 14.6549 13.3249H15.6314C15.8214 13.3249 15.9004 13.5681 15.7467 13.6798L14.9567 14.2537C14.8951 14.2984 14.8693 14.3778 14.8929 14.4502L15.214 15.4386C15.2666 15.6006 15.0812 15.7352 14.9435 15.6351L14.1147 15.033C14.046 14.9831 13.9529 14.9831 13.8841 15.033L13.0553 15.6351C12.9176 15.7352 12.7322 15.6006 12.7848 15.4386L13.106 14.4502C13.1295 14.3778 13.1037 14.2985 13.0421 14.2537L12.2522 13.6798C12.0984 13.568 12.1774 13.3249 12.3675 13.3249H13.3439C13.42 13.3249 13.4875 13.2759 13.511 13.2035L13.8321 12.2151C13.885 12.0531 14.1141 12.0531 14.1667 12.2151Z" fill="white"/>
<path d="M14.3678 6.48864V8.06286C14.3678 8.26592 14.2032 8.43053 14.0002 8.43053C13.7971 8.43053 13.6325 8.26592 13.6325 8.06286V6.48864C13.6325 6.28557 13.7971 6.12097 14.0002 6.12097C14.2032 6.12097 14.3678 6.28564 14.3678 6.48864ZM14.0002 19.5696C13.7971 19.5696 13.6325 19.7342 13.6325 19.9372V21.5115C13.6325 21.7145 13.7971 21.8791 14.0002 21.8791C14.2032 21.8791 14.3678 21.7145 14.3678 21.5115V19.9372C14.3678 19.7342 14.2032 19.5696 14.0002 19.5696ZM21.5116 13.6324H19.9374C19.7343 13.6324 19.5697 13.797 19.5697 14C19.5697 14.2031 19.7343 14.3677 19.9374 14.3677H21.5116C21.7146 14.3677 21.8792 14.2031 21.8792 14C21.8792 13.797 21.7146 13.6324 21.5116 13.6324ZM8.43072 14C8.43072 13.797 8.26612 13.6324 8.06305 13.6324H6.48876C6.2857 13.6324 6.12109 13.797 6.12109 14C6.12109 14.2031 6.2857 14.3677 6.48876 14.3677H8.06298C8.26605 14.3677 8.43072 14.2031 8.43072 14ZM18.4583 10.0618L19.5715 8.94866C19.7151 8.80508 19.7151 8.57228 19.5715 8.4287C19.4279 8.28512 19.1951 8.28512 19.0516 8.4287L17.9384 9.54189C17.7948 9.68546 17.7948 9.91827 17.9384 10.0618C18.082 10.2054 18.3148 10.2054 18.4583 10.0618ZM9.54201 17.9383L8.42882 19.0514C8.28524 19.195 8.28524 19.4278 8.42882 19.5714C8.5724 19.715 8.8052 19.715 8.94878 19.5714L10.062 18.4582C10.2055 18.3146 10.2055 18.0818 10.062 17.9383C9.91839 17.7947 9.68559 17.7947 9.54201 17.9383ZM18.4583 17.9383C18.3148 17.7947 18.082 17.7947 17.9384 17.9383C17.7948 18.0818 17.7948 18.3146 17.9384 18.4582L19.0516 19.5714C19.1951 19.715 19.4279 19.715 19.5715 19.5714C19.7151 19.4278 19.7151 19.195 19.5715 19.0514L18.4583 17.9383ZM8.94878 8.4287C8.8052 8.28512 8.5724 8.28512 8.42882 8.4287C8.28524 8.57228 8.28524 8.80508 8.42882 8.94866L9.54201 10.0618C9.68559 10.2054 9.91839 10.2054 10.062 10.0618C10.2055 9.91827 10.2055 9.68546 10.062 9.54189L8.94878 8.4287Z" fill="#FFA91A"/>
<path d="M9.81747 17.8309C9.82169 17.9302 9.7859 18.0308 9.71017 18.1066L8.59698 19.2198C8.52119 19.2956 8.4205 19.3314 8.32129 19.3272C8.32509 19.416 8.3608 19.5036 8.42859 19.5714C8.57216 19.715 8.80497 19.715 8.94855 19.5714L10.0617 18.4582C10.2053 18.3146 10.2053 18.0818 10.0617 17.9382C9.99395 17.8704 9.90627 17.8347 9.81747 17.8309Z" fill="#F79219"/>
<path d="M19.2199 8.59705L18.1068 9.71024C18.031 9.78604 17.9303 9.82183 17.8311 9.81754C17.8349 9.90634 17.8706 9.99395 17.9384 10.0618C18.0819 10.2054 18.3147 10.2054 18.4583 10.0618L19.5715 8.94862C19.7151 8.80504 19.7151 8.57223 19.5715 8.42866C19.5037 8.36088 19.416 8.32509 19.3273 8.32129C19.3315 8.42064 19.2957 8.52126 19.2199 8.59705Z" fill="#F79219"/>
<path d="M9.71039 9.19031C9.85397 9.33389 9.85397 9.56669 9.71039 9.71027C9.56681 9.85385 9.33401 9.85385 9.19043 9.71027L9.54199 10.0618C9.68557 10.2054 9.91837 10.2054 10.062 10.0618C10.2055 9.91825 10.2055 9.68545 10.062 9.54187L9.71039 9.19031Z" fill="#F79219"/>
<path d="M8.43037 14C8.43037 13.8022 8.2742 13.6409 8.07845 13.6327C8.07866 13.6379 8.0788 13.6432 8.0788 13.6484C8.0788 13.8515 7.9142 14.0161 7.71114 14.0161H6.13684C6.13157 14.0161 6.1263 14.016 6.12109 14.0158C6.12932 14.2115 6.29062 14.3677 6.48841 14.3677H8.06263C8.2657 14.3677 8.43037 14.2031 8.43037 14Z" fill="#F79219"/>
<path d="M19.2192 18.6998C19.3628 18.8434 19.3628 19.0762 19.2192 19.2198C19.0756 19.3634 18.8428 19.3634 18.6992 19.2198L19.0508 19.5714C19.1944 19.7149 19.4272 19.7149 19.5707 19.5714C19.7143 19.4278 19.7143 19.195 19.5707 19.0514L19.2192 18.6998Z" fill="#F79219"/>
<path d="M14.0159 19.5698C14.0161 19.575 14.0162 19.5803 14.0162 19.5856V21.1598C14.0162 21.3629 13.8516 21.5275 13.6486 21.5275C13.6433 21.5275 13.638 21.5273 13.6328 21.5271C13.641 21.7229 13.8023 21.879 14.0001 21.879C14.2032 21.879 14.3678 21.7144 14.3678 21.5114V19.9371C14.3678 19.7393 14.2116 19.5781 14.0159 19.5698Z" fill="#F79219"/>
<path d="M21.5266 13.6327C21.5268 13.6379 21.527 13.6432 21.527 13.6484C21.527 13.8515 21.3624 14.0161 21.1593 14.0161H19.5851C19.5798 14.0161 19.5745 14.016 19.5693 14.0158C19.5776 14.2115 19.7389 14.3677 19.9366 14.3677H21.5109C21.7139 14.3677 21.8785 14.2031 21.8785 14C21.8785 13.8022 21.7224 13.6409 21.5266 13.6327Z" fill="#F79219"/>
<path d="M14.0159 6.12134C14.0161 6.12654 14.0162 6.13181 14.0162 6.13709V7.71131C14.0162 7.91438 13.8516 8.07898 13.6486 8.07898C13.6433 8.07898 13.638 8.07884 13.6328 8.07863C13.641 8.27438 13.8023 8.43054 14.0001 8.43054C14.2032 8.43054 14.3678 8.26594 14.3678 8.06288V6.48858C14.3678 6.29086 14.2116 6.12956 14.0159 6.12134Z" fill="#F79219"/>
</svg>
