<svg width="56" height="56" viewBox="0 0 56 56" fill="none" xmlns="http://www.w3.org/2000/svg">
<rect x="4" y="4" width="48" height="48" rx="24" fill="#98FF98"/>
<rect x="4" y="4" width="48" height="48" rx="24" stroke="#CBFFCB" stroke-width="8"/>
<g clip-path="url(#clip0_289_1456)">
<path d="M28 45C37.3888 45 45 37.3888 45 28C45 18.6112 37.3888 11 28 11C18.6112 11 11 18.6112 11 28C11 37.3888 18.6112 45 28 45Z" fill="#32BA7C"/>
<path d="M23.6561 35.6689L32.3975 44.4103C39.6372 42.4797 45 35.8835 45 28.0002C45 27.8393 45 27.6784 45 27.5175L38.1356 21.1895L23.6561 35.6689Z" fill="#0AA06E"/>
<path d="M28.429 31.8073C29.1798 32.5581 29.1798 33.8452 28.429 34.596L26.8738 36.1512C26.123 36.902 24.836 36.902 24.0852 36.1512L17.2745 29.2868C16.5237 28.536 16.5237 27.249 17.2745 26.4982L18.8297 24.943C19.5805 24.1922 20.8675 24.1922 21.6183 24.943L28.429 31.8073Z" fill="white"/>
<path d="M34.3817 19.9557C35.1325 19.2049 36.4196 19.2049 37.1703 19.9557L38.7256 21.5109C39.4763 22.2617 39.4763 23.5487 38.7256 24.2995L26.9274 36.044C26.1767 36.7948 24.8896 36.7948 24.1388 36.044L22.5836 34.4888C21.8328 33.738 21.8328 32.4509 22.5836 31.7001L34.3817 19.9557Z" fill="white"/>
</g>
<defs>
<clipPath id="clip0_289_1456">
<rect width="34" height="34" fill="white" transform="translate(11 11)"/>
</clipPath>
</defs>
</svg>
