<svg width="32" height="32" viewBox="0 0 32 32" fill="none" xmlns="http://www.w3.org/2000/svg">
<path d="M16.8341 27.7537V30.105C16.8341 30.8927 17.4727 31.5313 18.2604 31.5313H23.6122C24.4 31.5313 25.0385 30.8928 25.0385 30.105V27.7537H16.8341Z" fill="#69B5FF"/>
<path d="M20.7419 27.7536C20.736 27.8975 20.7315 28.0415 20.7304 28.1859L20.7049 31.5312H23.6121C24.3999 31.5312 25.0385 30.8927 25.0385 30.1049V27.7535H20.7419V27.7536Z" fill="#1E90FF"/>
<path d="M24.8435 26.7563C25.175 24.1941 26.2965 21.7851 28.0567 19.8561C29.6197 18.1433 30.5729 15.8646 30.5729 13.3631C30.5729 8.0172 26.2198 3.68795 20.8649 3.7267C15.5754 3.76495 11.2762 8.1172 11.2997 13.4068C11.3107 15.8985 12.2675 18.1666 13.8295 19.8711C15.5892 21.7913 16.7009 24.199 17.0297 26.7562H24.8435V26.7563Z" fill="#FFF2AA"/>
<path d="M20.865 3.7267C20.1879 3.73157 19.5273 3.80764 18.8896 3.94676C23.2241 4.88864 26.4707 8.74645 26.4707 13.3631C26.4707 15.8646 25.5175 18.1433 23.9545 19.8561C23.8995 19.9164 23.8451 19.9771 23.7914 20.0384C22.133 21.9268 21.1177 24.2788 20.8213 26.7563H24.8435C25.175 24.1941 26.2965 21.7851 28.0567 19.8561C29.6197 18.1433 30.5729 15.8646 30.5729 13.3631C30.573 8.0172 26.2199 3.68795 20.865 3.7267Z" fill="#FFD700"/>
<path d="M24.4164 24.3836H17.4562V22.7684C17.4562 22.344 17.8002 22 18.2246 22H23.6481C24.0724 22 24.4164 22.344 24.4164 22.7684V24.3836Z" fill="#1E90FF"/>
<path d="M23.6481 22.0001H22.3899C21.9561 22.7559 21.6047 23.5552 21.3388 24.3837H24.4164V22.7685C24.4164 22.3441 24.0724 22.0001 23.6481 22.0001Z" fill="#1E90FF"/>
<path d="M25.2962 25.759H16.5764C16.0255 25.759 15.579 25.3125 15.579 24.7617C15.579 24.2109 16.0255 23.7644 16.5764 23.7644H25.2962C25.847 23.7644 26.2935 24.2109 26.2935 24.7617C26.2935 25.3125 25.847 25.759 25.2962 25.759Z" fill="#D9ECFF"/>
<path d="M25.2962 27.7537H16.5764C16.0255 27.7537 15.579 27.3072 15.579 26.7563C15.579 26.2055 16.0255 25.759 16.5764 25.759H25.2962C25.847 25.759 26.2935 26.2055 26.2935 26.7563C26.2935 27.3072 25.847 27.7537 25.2962 27.7537Z" fill="#FAFAFA"/>
<path d="M25.2962 29.7482H16.5764C16.0255 29.7482 15.579 29.3017 15.579 28.7509C15.579 28.2 16.0255 27.7535 16.5764 27.7535H25.2962C25.847 27.7535 26.2935 28.2 26.2935 28.7509C26.2935 29.3017 25.847 29.7482 25.2962 29.7482Z" fill="#D9ECFF"/>
<path d="M25.2966 23.7644H21.5558C21.3102 24.411 21.1182 25.0783 20.9814 25.759H25.2966C25.8474 25.759 26.2939 25.3125 26.2939 24.7617C26.2939 24.2109 25.8474 23.7644 25.2966 23.7644Z" fill="#B4DAFF"/>
<path d="M25.2967 25.759H20.9815C20.85 26.4137 20.7699 27.0808 20.7422 27.7537H25.2967C25.8475 27.7537 26.294 27.3072 26.294 26.7563C26.294 26.2055 25.8474 25.759 25.2967 25.759Z" fill="#D9ECFF"/>
<path d="M25.2963 27.7537H20.7418C20.7358 27.8975 20.7316 28.0416 20.7304 28.1859L20.7186 29.7483H25.2963C25.8471 29.7483 26.2936 29.3018 26.2936 28.751C26.2935 28.2002 25.847 27.7537 25.2963 27.7537Z" fill="#B4DAFF"/>
<path d="M15.752 29.3115C15.8415 29.4429 15.9613 29.5518 16.1017 29.628L15.752 29.3115Z" fill="#D9ECFF"/>
<path d="M3.56205 0.46875H14.4051C15.5839 0.46875 16.5394 1.42431 16.5394 2.60306V9.22619C16.5394 10.4049 15.5839 11.3605 14.4051 11.3605C14.279 11.3605 14.1904 11.4844 14.2312 11.6038L15.0414 13.9762C15.077 14.0803 14.9569 14.1681 14.8685 14.1026L11.32 11.4727C11.2218 11.3999 11.1027 11.3606 10.9804 11.3606H3.56205C2.3833 11.3606 1.42773 10.405 1.42773 9.22625V2.60306C1.42773 1.42431 2.3833 0.46875 3.56205 0.46875Z" fill="#B4DAFF"/>
<path d="M14.4056 0.46875H10.3223C11.501 0.46875 12.4566 1.42431 12.4566 2.60306V9.22619C12.4566 10.4049 11.501 11.3605 10.3223 11.3605H10.9808C11.1031 11.3605 11.2222 11.3998 11.3205 11.4726L14.869 14.1025C14.9574 14.168 15.0775 14.0803 15.0418 13.9762L14.2316 11.6038C14.1908 11.4845 14.2795 11.3605 14.4055 11.3605C15.5843 11.3605 16.5398 10.4049 16.5398 9.22619V2.60306C16.54 1.42431 15.5844 0.46875 14.4056 0.46875Z" fill="#8FC8FF"/>
<path d="M8.20807 3.76636H13.8045C14.0634 3.76636 14.2733 3.55648 14.2733 3.29761C14.2733 3.03873 14.0634 2.82886 13.8045 2.82886H8.20807C7.94919 2.82886 7.73932 3.03873 7.73932 3.29761C7.73932 3.55648 7.94919 3.76636 8.20807 3.76636Z" fill="#333333"/>
<path d="M4.16309 6.09949H13.805C14.0638 6.09949 14.2737 5.88961 14.2737 5.63074C14.2737 5.37186 14.0638 5.16199 13.805 5.16199H4.16309C3.90421 5.16199 3.69434 5.37186 3.69434 5.63074C3.69434 5.88961 3.90421 6.09949 4.16309 6.09949Z" fill="#333333"/>
<path d="M14.2736 7.96387C14.2736 7.70499 14.0638 7.49512 13.8049 7.49512H4.16309C3.90421 7.49512 3.69434 7.70499 3.69434 7.96387C3.69434 8.22274 3.90421 8.43262 4.16309 8.43262H13.805C14.0638 8.43262 14.2736 8.22274 14.2736 7.96387Z" fill="#333333"/>
<path d="M11.0409 11.8493L14.5894 14.4792C14.7946 14.6313 15.0714 14.6325 15.278 14.4815C15.4845 14.3306 15.5676 14.0667 15.485 13.8248L14.7936 11.8004C16.0453 11.6123 17.0082 10.5296 17.0082 9.22625V2.60306C17.0082 1.16775 15.8405 0 14.4051 0H3.56205C2.12673 0 0.958984 1.16775 0.958984 2.60306V9.22619C0.958984 10.6615 2.12673 11.8293 3.56205 11.8293H10.9803C11.002 11.8293 11.0235 11.8364 11.0409 11.8493ZM1.89648 9.22625V2.60306C1.89648 1.68469 2.64367 0.9375 3.56205 0.9375H14.4051C15.3235 0.9375 16.0707 1.68469 16.0707 2.60306V9.22619C16.0707 10.1446 15.3235 10.8918 14.4051 10.8918C14.195 10.8918 13.9965 10.9938 13.8743 11.1647C13.752 11.3356 13.7196 11.5564 13.7875 11.7552L14.2277 13.0442L11.599 11.0961C11.4213 10.9644 11.2015 10.8918 10.9802 10.8918H3.56205C2.64367 10.8918 1.89648 10.1446 1.89648 9.22625Z" fill="#333333"/>
<path d="M28.0556 6.1916C25.4155 3.57048 21.7288 2.72173 18.4218 3.5761C18.1712 3.64091 18.0205 3.89654 18.0853 4.14723C18.1501 4.39785 18.4056 4.54829 18.6564 4.48379C21.6043 3.7221 24.9679 4.44723 27.395 6.85685C30.9505 10.3867 30.9546 15.9847 27.7101 19.5402C26.6933 20.6544 25.8846 21.9165 25.3015 23.2957C25.2996 23.2957 25.2977 23.2956 25.2958 23.2956H24.8848V22.7684C24.8848 22.0862 24.3298 21.5313 23.6476 21.5313H23.04V20.8578C23.04 19.935 23.4781 19.6319 25.3338 15.9358C25.482 15.6527 25.3361 15.1852 24.9185 15.1852C24.3893 15.1852 24.1066 15.4744 23.9195 15.6658C23.7598 15.8292 23.7139 15.8642 23.5908 15.8642C23.4678 15.8642 23.4219 15.8292 23.2621 15.6658C22.6398 15.0293 21.909 15.006 21.2641 15.6658C21.1045 15.8292 21.0586 15.8642 20.9356 15.8642C20.8126 15.8642 20.7668 15.8292 20.6071 15.6658C19.9849 15.0293 19.2541 15.006 18.6092 15.6658C18.4495 15.8292 18.4036 15.8642 18.2806 15.8642C18.1577 15.8642 18.1118 15.8292 17.9521 15.6658C17.7651 15.4744 17.4824 15.1852 16.9532 15.1852C16.5345 15.1852 16.3928 15.6585 16.5379 15.9357C18.4171 19.6785 18.8317 19.9377 18.8317 20.8577V21.5312H18.2241C17.5419 21.5312 16.987 22.0862 16.987 22.7684V23.2955H16.5759C16.5756 23.2955 16.5753 23.2955 16.575 23.2955C15.994 21.9174 15.188 20.6602 14.1747 19.5544C12.7613 18.0121 11.9128 16.0154 11.7853 13.932C11.7695 13.6736 11.5465 13.4764 11.2888 13.4928C11.0304 13.5086 10.8337 13.7309 10.8495 13.9893C10.9901 16.2863 11.9255 18.4876 13.4835 20.1877C14.4088 21.1975 15.1476 22.3435 15.6849 23.5984C15.3356 23.8667 15.1098 24.2881 15.1098 24.7615C15.1098 25.1464 15.2591 25.4969 15.5026 25.7588C15.2591 26.0206 15.1098 26.3712 15.1098 26.7561C15.1098 27.141 15.2591 27.4915 15.5026 27.7534C15.2591 28.0153 15.1098 28.3658 15.1098 28.7507C15.1098 29.4883 15.6574 30.1001 16.3673 30.2017C16.418 31.2018 17.2475 31.9999 18.2599 31.9999H23.6117C24.6241 31.9999 25.4536 31.2018 25.5043 30.2017C26.2142 30.1001 26.7618 29.4883 26.7618 28.7507C26.7618 28.3658 26.6125 28.0153 26.369 27.7534C26.6125 27.4915 26.7618 27.141 26.7618 26.7561C26.7618 26.3712 26.6125 26.0207 26.369 25.7588C26.6125 25.4969 26.7618 25.1464 26.7618 24.7615C26.7618 24.2897 26.5376 23.8696 26.1903 23.6012C26.73 22.3434 27.4724 21.1912 28.4025 20.1719C31.9806 16.2513 31.9734 10.0812 28.0556 6.1916ZM18.0376 16.779C18.586 16.8826 18.952 16.6564 19.2797 16.3212C19.4394 16.1578 19.4853 16.1227 19.6082 16.1227C19.7312 16.1227 19.7771 16.1578 19.9368 16.3212C20.559 16.9578 21.2898 16.9809 21.9346 16.3212C22.0943 16.1578 22.1402 16.1227 22.2632 16.1227C22.3863 16.1227 22.4321 16.1578 22.5919 16.3212C22.9211 16.6579 23.2788 16.8841 23.8343 16.779C22.7296 19.0592 22.1026 19.625 22.1026 20.8577V21.5312H19.7693V20.8577C19.7693 19.6251 19.1424 19.0594 18.0376 16.779ZM17.9246 22.7684C17.9246 22.6032 18.059 22.4688 18.2243 22.4688H23.6478C23.813 22.4688 23.9474 22.6032 23.9474 22.7684V23.2956H17.9246V22.7684ZM23.6119 31.0625H18.2601C17.7701 31.0625 17.3654 30.6923 17.3096 30.217H24.5623C24.5066 30.6923 24.102 31.0625 23.6119 31.0625ZM25.296 29.2795H16.5761C16.2846 29.2795 16.0475 29.0424 16.0475 28.7509C16.0475 28.4595 16.2846 28.2224 16.5761 28.2224H25.296C25.5874 28.2224 25.8245 28.4595 25.8245 28.7509C25.8245 29.0424 25.5874 29.2795 25.296 29.2795ZM19.686 26.2277H25.296C25.5874 26.2277 25.8245 26.4648 25.8245 26.7563C25.8245 27.0478 25.5874 27.2849 25.296 27.2849H16.5761C16.2846 27.2849 16.0475 27.0477 16.0475 26.7563C16.0475 26.4649 16.2846 26.2277 16.5761 26.2277H17.4946C17.7535 26.2277 17.9633 26.0179 17.9633 25.759C17.9633 25.5001 17.7535 25.2902 17.4946 25.2902H16.5761C16.2846 25.2902 16.0475 25.0531 16.0475 24.7617C16.0475 24.4702 16.2846 24.2331 16.5761 24.2331H25.296C25.5874 24.2331 25.8245 24.4702 25.8245 24.7617C25.8245 25.0531 25.5874 25.2902 25.296 25.2902H19.686C19.4271 25.2902 19.2173 25.5001 19.2173 25.759C19.2173 26.0179 19.4271 26.2277 19.686 26.2277Z" fill="#333333"/>
</svg>
