<svg width="120" height="42" viewBox="0 0 120 42" fill="none" xmlns="http://www.w3.org/2000/svg">
<g clip-path="url(#clip0_60_219)">
<path d="M19.3423 29.951L26.9644 37.5034L22.6672 41.7512L15.045 34.2036L19.3423 29.951Z" fill="#EA6049"/>
<path d="M44.0537 35.7526V33.6498C43.0055 35.3583 41.4356 36.1516 39.3391 36.1516C36.3178 36.1516 34.1929 33.9267 34.1929 30.6317V20.2866H38.2008V30.0215C38.2008 31.9131 39.064 32.8284 40.7573 32.8284C42.4506 32.8284 43.8688 31.3968 43.8688 29.4113V20.2866H47.8435V35.7573H44.0537V35.7526Z" fill="#000149"/>
<path d="M59.3075 35.7526V26.6654C59.3075 24.3467 58.6292 23.7083 56.7178 23.7083C54.8063 23.7083 53.6063 24.8677 53.6063 27.1536V35.7573H49.5984V20.2866H53.4213V22.9432C54.3462 21.2676 55.8877 20.3523 58.3209 20.3523C60.7541 20.3523 63.3438 22.089 63.3438 25.3558V35.7573H59.3075V35.7526Z" fill="#000149"/>
<path d="M69.2063 20.2819H65.1984V35.7526H69.2063V20.2819Z" fill="#000149"/>
<path d="M84.6735 30.3219C84.2419 33.8 81.3771 36.1468 77.7059 36.1468C74.0348 36.1468 70.7383 33.4338 70.7383 28.0642C70.7383 22.6945 73.5747 20.3476 77.8293 20.3476C82.0838 20.3476 84.4553 22.5724 84.702 26.1115H80.6656C80.4474 24.5579 79.3091 23.6426 77.8008 23.6426C76.2925 23.6426 74.7178 24.7081 74.7178 27.975C74.7178 31.2418 76.1028 32.8236 77.6775 32.8236C79.2522 32.8236 80.4806 31.9412 80.6372 30.3219H84.6735Z" fill="#000149"/>
<path d="M95.7107 35.7526V33.6498C94.6624 35.3583 93.0925 36.1516 90.996 36.1516C87.9747 36.1516 85.8498 33.9267 85.8498 30.6317V20.2866H89.8577V30.0215C89.8577 31.9131 90.7209 32.8284 92.4142 32.8284C94.1075 32.8284 95.5257 31.3968 95.5257 29.4113V20.2866H99.5004V35.7573H95.7107V35.7526Z" fill="#000149"/>
<path d="M101.26 35.7526V15.2548H105.268V35.7526H101.26Z" fill="#000149"/>
<path d="M115.56 25.8675H119.289V30.1388C119.289 33.3118 117.439 36.1469 113.156 36.1469C108.873 36.1469 106.961 33.34 106.961 30.106V15.2079H110.907V20.7419H119.293V23.5487H110.907V29.7117C110.907 31.6033 111.586 32.7016 113.217 32.7016C114.849 32.7016 115.56 31.6361 115.56 29.7727V25.8675Z" fill="#000149"/>
<path d="M19.3992 11.1665C22.4457 11.1665 24.9154 8.72251 24.9154 5.70765C24.9154 2.6928 22.4457 0.248779 19.3992 0.248779C16.3527 0.248779 13.883 2.6928 13.883 5.70765C13.883 8.72251 16.3527 11.1665 19.3992 11.1665Z" fill="#EA6049"/>
<path d="M27.7612 8.76801L19.4656 16.9821L15.6237 20.7841C15.3818 21.0282 15.1494 21.2723 14.9359 21.5163C11.9763 24.9193 11.9241 28.6884 13.7881 32.0398C15.3533 32.8706 17.0514 32.6782 18.5881 31.1527C18.9533 30.7913 19.2379 30.4251 19.4561 30.0496C18.7257 28.8105 18.7731 27.515 19.4561 26.304C19.717 25.844 20.0632 25.3981 20.4948 24.971L23.9857 21.5163L32.3099 13.274L27.7565 8.76801H27.7612Z" fill="#EA6049"/>
<path d="M19.4609 16.9821L11.1557 8.76801L6.60236 13.274L14.936 21.5163C15.1494 21.2723 15.3771 21.0282 15.6237 20.7841L19.4656 16.9821H19.4609Z" fill="#000149"/>
<path d="M23.9905 21.5116L20.4996 24.9663C20.068 25.3934 19.717 25.8393 19.4608 26.2993C20.1391 27.5103 20.1818 28.8105 19.4608 30.0449C19.2427 30.4204 18.9533 30.7865 18.5929 31.148C17.0561 32.6734 15.3581 32.8659 13.7929 32.0351C13.3043 31.7769 12.8253 31.4155 12.3699 30.9649L5.26955 23.9477L0.716187 28.4537L8.13911 35.7948C11.5873 39.2072 15.4767 39.5592 18.9676 37.8882C20.2767 37.2593 21.5336 36.3487 22.6861 35.2081C23.1083 34.7903 23.4972 34.3632 23.8529 33.9267C26.917 30.1435 27.5146 25.5718 23.9952 21.521L23.9905 21.5116Z" fill="#000149"/>
<path d="M67.2237 19.2633C68.3423 19.2633 69.249 18.366 69.249 17.2591C69.249 16.1522 68.3423 15.2548 67.2237 15.2548C66.1052 15.2548 65.1984 16.1522 65.1984 17.2591C65.1984 18.366 66.1052 19.2633 67.2237 19.2633Z" fill="#EA6049"/>
</g>
<defs>
<clipPath id="clip0_60_219">
<rect width="120" height="42" fill="white"/>
</clipPath>
</defs>
</svg>
