<svg width="131" height="118" viewBox="0 0 131 118" fill="none" xmlns="http://www.w3.org/2000/svg">
<g opacity="0.2" filter="url(#filter0_b_126_606)">
<ellipse cx="62.5" cy="59" rx="58.5" ry="59" fill="white"/>
<path d="M120.5 59C120.5 91.3127 94.5285 117.5 62.5 117.5C30.4715 117.5 4.5 91.3127 4.5 59C4.5 26.6873 30.4715 0.5 62.5 0.5C94.5285 0.5 120.5 26.6873 120.5 59Z" stroke="white" stroke-opacity="0.68"/>
</g>
<g filter="url(#filter1_b_126_606)">
<circle cx="64.0866" cy="58.1438" r="39.5827" fill="white"/>
</g>
<path fill-rule="evenodd" clip-rule="evenodd" d="M37.3508 76.2579L51.2179 90.125L55.6314 85.7115L41.7643 71.8444L37.3508 76.2579ZM69.3391 44.3745C70.7919 41.469 72.2446 40.0161 75.1503 40.0161C78.358 40.0161 80.9614 42.6195 80.9614 45.8272C80.9614 51.6384 75.1503 57.4495 69.3391 63.2606C63.528 57.4495 57.7169 51.6384 57.7169 45.8272C57.7169 42.6195 60.3203 40.0161 63.528 40.0161C66.4336 40.0161 67.8864 41.4689 69.3391 44.3745ZM89.5259 39.8489C89.8835 39.6418 90.3413 39.7638 90.5484 40.1214C90.7554 40.4789 90.6335 40.9368 90.2759 41.1439L86.9216 43.0805C86.5641 43.2875 86.1063 43.1656 85.8991 42.808C85.692 42.4505 85.814 41.9926 86.1716 41.7855L89.5259 39.8489ZM49.0029 53.1176C48.5886 53.1176 48.2529 52.7819 48.2529 52.3676C48.2529 51.9534 48.5886 51.6176 49.0029 51.6176H52.8761C53.2904 51.6176 53.6261 51.9534 53.6261 52.3676C53.6261 52.7819 53.2904 53.1176 52.8761 53.1176H49.0029ZM89.6756 51.6176C90.0899 51.6176 90.4256 51.9534 90.4256 52.3676C90.4256 52.7819 90.0899 53.1176 89.6756 53.1176H85.8024C85.3881 53.1176 85.0524 52.7819 85.0524 52.3676C85.0524 51.9534 85.3881 51.6176 85.8024 51.6176H89.6756ZM68.5891 28.625C68.5891 28.2108 68.9249 27.875 69.3391 27.875C69.7534 27.875 70.0891 28.2108 70.0891 28.625V32.4983C70.0891 32.9125 69.7534 33.2483 69.3391 33.2483C68.9249 33.2483 68.5891 32.9125 68.5891 32.4983V28.625ZM56.8204 32.1809C56.6133 31.8234 56.7353 31.3655 57.0929 31.1584C57.4505 30.9512 57.9083 31.0732 58.1154 31.4309L60.052 34.7853C60.2591 35.1428 60.1371 35.6006 59.7795 35.8077C59.4219 36.0149 58.9641 35.8929 58.757 35.5352L56.8204 32.1809ZM48.4025 41.1438C48.045 40.9368 47.923 40.4789 48.13 40.1213C48.3371 39.7638 48.7949 39.6418 49.1525 39.8488L52.5068 41.7854C52.8643 41.9925 52.9863 42.4502 52.7793 42.8079C52.5723 43.1655 52.1144 43.2874 51.7568 43.0804L48.4025 41.1438ZM80.563 31.4339C80.7685 31.0764 81.225 30.953 81.5825 31.1585C81.9401 31.364 82.0634 31.8205 81.8579 32.178L79.9213 35.5323C79.7158 35.8899 79.2593 36.0131 78.9018 35.8076C78.5443 35.6021 78.4209 35.1456 78.6264 34.7881L80.563 31.4339ZM78.8359 70.0575L84.4908 63.9491C86.2511 62.0476 89.3571 64.6385 87.8334 66.7396L79.9354 77.6299C78.373 79.7842 76.1396 81.0293 73.4781 81.0293H58.1984C56.9184 81.0293 55.8164 81.5311 54.976 82.4964L54.772 82.7306L44.6841 72.6427L49.5168 67.9245C50.99 66.4861 52.7445 65.7346 54.8035 65.7346H59.0301C60.4028 65.7346 61.5798 66.0499 62.7685 66.7363L64.065 67.4847H74.3554C76.006 67.4847 77.3564 68.8351 77.3564 70.4857C77.3564 71.317 77.0676 71.9088 76.5908 72.4824C76.0401 73.0976 75.241 73.4866 74.3554 73.4866C71.4309 73.4866 68.5066 73.4866 65.5823 73.4866C65.168 73.4866 64.8323 73.8224 64.8323 74.2366C64.8323 74.6509 65.168 74.9866 65.5823 74.9866H74.3554C77.0018 74.9866 79.0889 72.6936 78.8359 70.0575Z" fill="#FF4500"/>
<path fill-rule="evenodd" clip-rule="evenodd" d="M21.6758 22.3378C17.505 22.3378 14.1362 18.9527 14.1362 14.7915C14.1362 18.9527 10.7541 22.3378 6.59668 22.3378C10.7541 22.3378 14.1362 25.7095 14.1362 29.8706C14.1362 25.7095 17.505 22.3378 21.6758 22.3378Z" fill="#FFD51B"/>
<path fill-rule="evenodd" clip-rule="evenodd" d="M124.403 84.5389C120.233 84.5389 116.864 81.1538 116.864 76.9927C116.864 81.1538 113.482 84.5389 109.324 84.5389C113.482 84.5389 116.864 87.9107 116.864 92.0718C116.864 87.9107 120.233 84.5389 124.403 84.5389Z" fill="#FFD51B"/>
<path fill-rule="evenodd" clip-rule="evenodd" d="M7.53957 30.8163C5.45416 30.8163 3.76978 29.1238 3.76978 27.0432C3.76978 29.1238 2.07873 30.8163 0 30.8163C2.07873 30.8163 3.76978 32.5022 3.76978 34.5828C3.76978 32.5022 5.45416 30.8163 7.53957 30.8163Z" fill="white"/>
<path fill-rule="evenodd" clip-rule="evenodd" d="M131 93.9601C128.914 93.9601 127.23 92.2676 127.23 90.187C127.23 92.2676 125.539 93.9601 123.46 93.9601C125.539 93.9601 127.23 95.646 127.23 97.7266C127.23 95.646 128.914 93.9601 131 93.9601Z" fill="white"/>
<path fill-rule="evenodd" clip-rule="evenodd" d="M109.093 18.5646C107.008 18.5646 105.323 16.8721 105.323 14.7915C105.323 16.8721 103.632 18.5646 101.554 18.5646C103.632 18.5646 105.323 20.2505 105.323 22.3311C105.323 20.2505 107.008 18.5646 109.093 18.5646Z" fill="white"/>
<defs>
<filter id="filter0_b_126_606" x="-29.6" y="-33.6" width="184.2" height="185.2" filterUnits="userSpaceOnUse" color-interpolation-filters="sRGB">
<feFlood flood-opacity="0" result="BackgroundImageFix"/>
<feGaussianBlur in="BackgroundImageFix" stdDeviation="16.8"/>
<feComposite in2="SourceAlpha" operator="in" result="effect1_backgroundBlur_126_606"/>
<feBlend mode="normal" in="SourceGraphic" in2="effect1_backgroundBlur_126_606" result="shape"/>
</filter>
<filter id="filter1_b_126_606" x="-9.09609" y="-15.039" width="146.365" height="146.366" filterUnits="userSpaceOnUse" color-interpolation-filters="sRGB">
<feFlood flood-opacity="0" result="BackgroundImageFix"/>
<feGaussianBlur in="BackgroundImageFix" stdDeviation="16.8"/>
<feComposite in2="SourceAlpha" operator="in" result="effect1_backgroundBlur_126_606"/>
<feBlend mode="normal" in="SourceGraphic" in2="effect1_backgroundBlur_126_606" result="shape"/>
</filter>
</defs>
</svg>
