<svg width="28" height="28" viewBox="0 0 28 28" fill="none" xmlns="http://www.w3.org/2000/svg">
<circle cx="14" cy="14" r="14" fill="#D9ECFF"/>
<g clip-path="url(#clip0_210_65743)">
<path d="M15.125 19.3438C14.5625 17.9375 14.5625 16.5312 14.5625 16.5312H13.4375C13.4375 16.5312 13.4375 17.9375 12.875 19.3438H15.125Z" fill="#FFE455"/>
<path d="M12.3125 19.3438H15.6875V21.5938H12.3125V19.3438Z" fill="#FFD700"/>
<path d="M12.3125 21.5938H15.6875C16.3085 21.5938 16.8125 22.0978 16.8125 22.7188H11.1875C11.1875 22.0978 11.6915 21.5938 12.3125 21.5938Z" fill="#FFE455"/>
<path d="M12.3125 16.25C9.87434 16.25 7.25 15.0178 7.25 12.3125C7.25 12.002 7.502 11.75 7.8125 11.75H12.875C13.1855 11.75 13.4375 12.002 13.4375 12.3125C13.4375 12.623 13.1855 12.875 12.875 12.875H8.43294C8.81375 14.6348 10.9819 15.125 12.3125 15.125C12.623 15.125 12.875 15.377 12.875 15.6875C12.875 15.998 12.623 16.25 12.3125 16.25Z" fill="#FFE455"/>
<path d="M15.6875 16.25C18.1257 16.25 20.75 15.0178 20.75 12.3125C20.75 12.002 20.498 11.75 20.1875 11.75H15.125C14.8145 11.75 14.5625 12.002 14.5625 12.3125C14.5625 12.623 14.8145 12.875 15.125 12.875H19.5671C19.1862 14.6348 17.0181 15.125 15.6875 15.125C15.377 15.125 15.125 15.377 15.125 15.6875C15.125 15.998 15.377 16.25 15.6875 16.25Z" fill="#FFE455"/>
<path d="M17.3751 10.9062C17.3751 10.9062 17.6564 17.0938 14.0001 17.0938C10.3439 17.0938 10.6251 10.9062 10.6251 10.9062H17.3751Z" fill="#FFD700"/>
<path d="M17.375 9.78125H10.625C10.3143 9.78125 10.0625 10.0331 10.0625 10.3438C10.0625 10.6544 10.3143 10.9062 10.625 10.9062H17.375C17.6857 10.9062 17.9375 10.6544 17.9375 10.3438C17.9375 10.0331 17.6857 9.78125 17.375 9.78125Z" fill="#FFE455"/>
<path d="M13.9999 12.0312L14.4677 12.9788L15.5131 13.1307L14.7565 13.8681L14.9351 14.9093L13.9999 14.4177L13.0648 14.9093L13.2434 13.8681L12.4868 13.1307L13.5322 12.9788L13.9999 12.0312Z" fill="#FF4500"/>
<path d="M15.9688 21.3409V19.3438C15.9688 19.1885 15.843 19.0625 15.6875 19.0625H15.3205C15.0749 18.3931 14.954 17.7378 14.8961 17.2473C15.3435 17.1118 15.7421 16.8665 16.09 16.5177C18.5675 16.3858 21.0312 15.0471 21.0312 12.3125C21.0312 11.8473 20.6527 11.4688 20.1875 11.4688H17.6596C17.6622 11.3368 17.6624 11.2243 17.6616 11.1341C17.9856 11.0162 18.2188 10.708 18.2188 10.3438C18.2188 9.87856 17.8402 9.5 17.375 9.5H10.625C10.1598 9.5 9.78125 9.87856 9.78125 10.3438C9.78125 10.708 10.0144 11.0162 10.3384 11.1341C10.3376 11.2243 10.3378 11.3368 10.3404 11.4688H7.8125C7.34731 11.4688 6.96875 11.8473 6.96875 12.3125C6.96875 15.0471 9.4325 16.3858 11.91 16.5177C12.2579 16.8665 12.6565 17.112 13.1039 17.2473C13.046 17.7375 12.9251 18.3931 12.6795 19.0625H12.3125C12.157 19.0625 12.0312 19.1885 12.0312 19.3438V21.3409C11.3903 21.4717 10.9062 22.0395 10.9062 22.7188C10.9062 22.874 11.032 23 11.1875 23H16.8125C16.968 23 17.0938 22.874 17.0938 22.7188C17.0938 22.0398 16.6097 21.4717 15.9688 21.3409ZM20.1875 12.0312C20.3427 12.0312 20.4688 12.1575 20.4688 12.3125C20.4688 14.4922 18.6015 15.6481 16.5779 15.9086C16.7048 15.7117 16.8167 15.5022 16.916 15.2847C17.8829 15.0955 19.4942 14.5417 19.8421 12.9343C19.8598 12.8514 19.8393 12.7645 19.7862 12.6984C19.733 12.6323 19.6523 12.5938 19.5673 12.5938H17.589C17.6101 12.3946 17.6256 12.2059 17.6366 12.0312H20.1875ZM17.5156 13.1562H19.1865C18.8229 14.0402 17.8956 14.4559 17.1643 14.6505C17.33 14.1527 17.4411 13.6389 17.5156 13.1562ZM10.625 10.0625H17.375C17.5302 10.0625 17.6562 10.1888 17.6562 10.3438C17.6562 10.4987 17.5302 10.625 17.375 10.625H10.625C10.4697 10.625 10.3438 10.4987 10.3438 10.3438C10.3438 10.1888 10.4697 10.0625 10.625 10.0625ZM10.8359 14.6505C10.1047 14.4559 9.17741 14.0399 8.81375 13.1562H10.4847C10.5592 13.6389 10.6703 14.1527 10.8359 14.6505ZM7.53125 12.3125C7.53125 12.1575 7.65725 12.0312 7.8125 12.0312H10.3637C10.3747 12.2059 10.3902 12.3946 10.4112 12.5938H8.43294C8.34772 12.5938 8.26728 12.6323 8.21413 12.6984C8.16097 12.7645 8.14016 12.8514 8.15816 12.9343C8.50606 14.5414 10.1173 15.0955 11.0843 15.2847C11.1833 15.5022 11.2955 15.7117 11.4223 15.9086C9.39875 15.6478 7.53153 14.4922 7.53153 12.3125H7.53125ZM10.9017 11.1875H17.098C17.098 12.049 16.9939 14.7627 15.7322 16.0827C15.2625 16.5737 14.6958 16.8125 14 16.8125C13.3042 16.8125 12.7375 16.5737 12.2678 16.0827C11.0061 14.763 10.9018 12.0492 10.902 11.1875H10.9017ZM13.6574 17.3564C13.7694 17.368 13.883 17.375 14 17.375C14.117 17.375 14.2306 17.368 14.3426 17.3564C14.4005 17.8267 14.5124 18.4325 14.7237 19.0625H13.2766C13.4878 18.4322 13.5998 17.8264 13.6577 17.3564H13.6574ZM15.4062 19.625V21.3125H12.5938V19.625H15.4062ZM11.5168 22.4375C11.633 22.1101 11.9457 21.875 12.3125 21.875H15.6875C16.0542 21.875 16.367 22.1101 16.4832 22.4375H11.5168Z" fill="black"/>
<path d="M14.8043 15.1583C14.8454 15.18 14.8904 15.1906 14.9351 15.1906C14.9933 15.1906 15.0513 15.1726 15.1005 15.1369C15.1871 15.0739 15.2304 14.9673 15.2121 14.8619L15.0586 13.9661L15.7091 13.3319C15.7856 13.257 15.8132 13.1454 15.7803 13.0436C15.7471 12.9418 15.659 12.8675 15.553 12.852L14.6539 12.7215L14.2517 11.9068C14.1572 11.7147 13.8419 11.7147 13.7474 11.9068L13.3452 12.7215L12.446 12.852C12.34 12.8675 12.2523 12.9418 12.2188 13.0436C12.1859 13.1454 12.2132 13.257 12.29 13.3319L12.9405 13.9661L12.7869 14.8619C12.7689 14.9673 12.8122 15.0739 12.8986 15.1369C12.9858 15.1999 13.1008 15.2081 13.1947 15.1583L13.9991 14.7356L14.8035 15.1583H14.8043ZM13.4383 14.3953L13.5204 13.9155C13.5362 13.8243 13.5058 13.7312 13.4397 13.6665L13.0912 13.3268L13.573 13.2568C13.6647 13.2435 13.7437 13.1859 13.7848 13.1029L14.0002 12.6667L14.2157 13.1029C14.2567 13.1859 14.3358 13.2435 14.4275 13.2568L14.9092 13.3268L14.5608 13.6665C14.4947 13.731 14.4643 13.8243 14.48 13.9155L14.5622 14.3953L14.1313 14.1686C14.0902 14.1469 14.0455 14.1362 14.0005 14.1362C13.9555 14.1362 13.9108 14.1469 13.8697 14.1686L13.4389 14.3953H13.4383Z" fill="black"/>
<path d="M13.1562 20.1875H14.8438V20.75H13.1562V20.1875Z" fill="black"/>
<path d="M14 7.25C14.1555 7.25 14.2812 7.124 14.2812 6.96875V5.28125C14.2812 5.126 14.1555 5 14 5C13.8445 5 13.7188 5.126 13.7188 5.28125V6.96875C13.7188 7.124 13.8445 7.25 14 7.25Z" fill="black"/>
<path d="M11.4802 7.92042C11.5249 8.0287 11.6298 8.09424 11.7401 8.09424C11.7761 8.09424 11.8126 8.0872 11.8478 8.07258C11.9912 8.01324 12.0593 7.8487 11.9999 7.70499L11.3542 6.14602C11.2948 6.00258 11.1297 5.93508 10.9866 5.99386C10.8431 6.0532 10.7751 6.21774 10.8344 6.36145L11.4802 7.92042Z" fill="black"/>
<path d="M8.45718 8.36101C8.51202 8.41585 8.58402 8.44341 8.65602 8.44341C8.72802 8.44341 8.80002 8.41585 8.85487 8.36101C8.96484 8.25104 8.96484 8.07329 8.85487 7.96332L7.6618 6.76998C7.55184 6.66001 7.37409 6.66001 7.26412 6.76998C7.15415 6.87995 7.15415 7.0577 7.26412 7.16766L8.45718 8.36101Z" fill="black"/>
<path d="M5.7361 10.0412L7.29507 10.6869C7.33022 10.7016 7.36678 10.7086 7.40278 10.7086C7.51303 10.7086 7.61794 10.6431 7.66266 10.5348C7.722 10.3913 7.65394 10.2268 7.5105 10.1672L5.95153 9.52144C5.80838 9.4621 5.64328 9.53016 5.58394 9.6736C5.5246 9.81703 5.59266 9.98157 5.7361 10.0412Z" fill="black"/>
<path d="M19.3438 8.44341C19.4158 8.44341 19.4878 8.41585 19.5427 8.36101L20.7357 7.16766C20.8457 7.0577 20.8457 6.87995 20.7357 6.76998C20.6258 6.66001 20.448 6.66001 20.338 6.76998L19.145 7.96332C19.035 8.07329 19.035 8.25104 19.145 8.36101C19.1998 8.41585 19.2718 8.44341 19.3438 8.44341Z" fill="black"/>
<path d="M20.3374 10.5347C20.3821 10.643 20.487 10.7085 20.5972 10.7085C20.6332 10.7085 20.6698 10.7015 20.705 10.6869L22.2639 10.0411C22.4074 9.98177 22.4754 9.81724 22.4161 9.67352C22.3567 9.5298 22.1916 9.4623 22.0485 9.52136L20.4895 10.1671C20.3461 10.2265 20.278 10.391 20.3374 10.5347Z" fill="black"/>
<path d="M6.40625 13.7188H5.28125C5.12572 13.7188 5 13.8448 5 14C5 14.1552 5.12572 14.2812 5.28125 14.2812H6.40625C6.56178 14.2812 6.6875 14.1552 6.6875 14C6.6875 13.8448 6.56178 13.7188 6.40625 13.7188Z" fill="black"/>
<path d="M8.80328 16.1524C8.74394 16.0087 8.57857 15.9415 8.43569 16.0002L6.87672 16.646C6.73328 16.7053 6.66522 16.8699 6.72457 17.0136C6.76928 17.1219 6.87419 17.1874 6.98444 17.1874C7.02044 17.1874 7.057 17.1804 7.09216 17.1657L8.65113 16.52C8.79456 16.4607 8.86263 16.2961 8.80328 16.1524Z" fill="black"/>
<path d="M9.62466 17.9775L8.45748 19.145C8.34751 19.2549 8.34751 19.4327 8.45748 19.5427C8.51232 19.5975 8.58432 19.6251 8.65632 19.6251C8.72832 19.6251 8.80032 19.5975 8.85516 19.5427L10.0224 18.3752C10.1323 18.2652 10.1323 18.0875 10.0224 17.9775C9.91238 17.8675 9.73463 17.8675 9.62466 17.9775Z" fill="black"/>
<path d="M18.3752 17.9775C18.2652 17.8675 18.0875 17.8675 17.9775 17.9775C17.8675 18.0875 17.8675 18.2652 17.9775 18.3752L19.1447 19.5427C19.1995 19.5975 19.2715 19.6251 19.3435 19.6251C19.4155 19.6251 19.4875 19.5975 19.5424 19.5427C19.6523 19.4327 19.6523 19.2549 19.5424 19.145L18.3752 17.9775Z" fill="black"/>
<path d="M21.1233 16.6464L19.5643 16.0007C19.4215 15.9419 19.2561 16.0094 19.1967 16.1529C19.1374 16.2963 19.2055 16.4608 19.3489 16.5204L20.9079 17.1662C20.943 17.1808 20.9796 17.1879 21.0156 17.1879C21.1258 17.1879 21.2307 17.1223 21.2755 17.014C21.3348 16.8706 21.2667 16.7061 21.1233 16.6464Z" fill="black"/>
<path d="M22.7188 13.7188H21.5938C21.4382 13.7188 21.3125 13.8448 21.3125 14C21.3125 14.1552 21.4382 14.2812 21.5938 14.2812H22.7188C22.8743 14.2812 23 14.1552 23 14C23 13.8448 22.8743 13.7188 22.7188 13.7188Z" fill="black"/>
<path d="M16.1526 8.07258C16.1878 8.0872 16.2243 8.09424 16.2603 8.09424C16.3706 8.09424 16.4755 8.0287 16.5202 7.92042L17.1659 6.36145C17.2253 6.21802 17.1572 6.05349 17.0138 5.99386C16.8712 5.93508 16.7055 6.00258 16.6462 6.14602L16.0004 7.70499C15.9411 7.84842 16.0092 8.01295 16.1526 8.07258Z" fill="black"/>
</g>
<defs>
<clipPath id="clip0_210_65743">
<rect width="18" height="18" fill="white" transform="translate(5 5)"/>
</clipPath>
</defs>
</svg>
