<svg width="16" height="16" viewBox="0 0 16 16" fill="none" xmlns="http://www.w3.org/2000/svg">
<g clip-path="url(#clip0_126_621)">
<path d="M13.6765 2.32348C10.5261 -0.796149 5.44317 -0.771179 2.32354 2.37928C-0.774432 5.50787 -0.774432 10.5479 2.32354 13.6765C5.474 16.7962 10.5569 16.7712 13.6765 13.6207C16.7745 10.4921 16.7745 5.45207 13.6765 2.32348ZM8.00004 15.3828C3.92913 15.3828 0.617239 12.0709 0.617239 7.99998C0.617239 3.92903 3.92909 0.617216 8.00004 0.617216C12.071 0.617216 15.3828 3.92907 15.3828 8.00002C15.3828 12.071 12.071 15.3828 8.00004 15.3828Z" fill="#FAFAFA"/>
<path d="M12.3515 7.72054V7.72091L5.83348 3.95782C5.67922 3.86875 5.48194 3.9216 5.39288 4.0759C5.36459 4.12489 5.34967 4.18043 5.34967 4.23703V11.7632C5.34974 11.9413 5.49425 12.0857 5.67238 12.0856C5.72895 12.0855 5.78453 12.0706 5.83352 12.0424L12.3515 8.27926C12.5058 8.19023 12.5587 7.99295 12.4697 7.83866C12.4413 7.78959 12.4006 7.74886 12.3515 7.72054ZM5.99513 11.2044V4.79572L11.5451 8.00005L5.99513 11.2044Z" fill="#FAFAFA"/>
</g>
<defs>
<clipPath id="clip0_126_621">
<rect width="16" height="16" fill="white"/>
</clipPath>
</defs>
</svg>
