<svg width="16" height="16" viewBox="0 0 16 16" fill="none" xmlns="http://www.w3.org/2000/svg">
<g clip-path="url(#clip0_185_5021)">
<path d="M13.6765 2.32348C10.526 -0.796149 5.44311 -0.771179 2.32348 2.37928C-0.774493 5.50787 -0.774493 10.5479 2.32348 13.6765C5.47394 16.7962 10.5569 16.7712 13.6765 13.6207C16.7745 10.4921 16.7745 5.45207 13.6765 2.32348ZM7.99998 15.3828C3.92907 15.3828 0.617178 12.0709 0.617178 7.99998C0.617178 3.92903 3.92903 0.617216 7.99998 0.617216C12.0709 0.617216 15.3828 3.92907 15.3828 8.00002C15.3828 12.071 12.0709 15.3828 7.99998 15.3828Z" fill="#FF4500"/>
<path d="M12.3514 7.72054V7.72091L5.83342 3.95782C5.67916 3.86875 5.48188 3.9216 5.39281 4.0759C5.36453 4.12489 5.34961 4.18043 5.34961 4.23703V11.7632C5.34968 11.9413 5.49419 12.0857 5.67232 12.0856C5.72888 12.0855 5.78447 12.0706 5.83346 12.0424L12.3515 8.27926C12.5058 8.19023 12.5586 7.99295 12.4696 7.83866C12.4413 7.78959 12.4005 7.74886 12.3514 7.72054ZM5.99507 11.2044V4.79572L11.5451 8.00005L5.99507 11.2044Z" fill="#FF4500"/>
</g>
<defs>
<clipPath id="clip0_185_5021">
<rect width="16" height="16" fill="white"/>
</clipPath>
</defs>
</svg>
